<?xml version="1.0" encoding="utf-8"?>
<!-- Generator: Adobe Illustrator 16.0.0, SVG Export Plug-In . SVG Version: 6.00 Build 0)  -->
<!DOCTYPE svg PUBLIC "-//W3C//DTD SVG 1.1//EN" "http://www.w3.org/Graphics/SVG/1.1/DTD/svg11.dtd">
<svg version="1.1" id="Layer_1" xmlns="http://www.w3.org/2000/svg" xmlns:xlink="http://www.w3.org/1999/xlink" x="0px" y="0px"
	 width="117.34px" height="96px" viewBox="0 0 117.34 96" style="enable-background:new 0 0 117.34 96;" xml:space="preserve">
<style type="text/css">
<![CDATA[
	.st0{fill:#EC2227;}
	.st1{fill:#EE2735;}
	.st2{fill:#F0EDE5;}
	.st3{fill:#F0EDE6;}
	.st4{fill:#F1EEE7;}
	.st5{fill:#C9202C;}
]]>
</style>
<g>
	<g>
		<path class="st5" d="M68.894,49.275l-0.507,3.572c-0.264,0.037-0.527,0.057-0.789,0.084c0.181-0.4,0.345-0.809,0.498-1.223
			c0.164-0.414,0.309-0.827,0.444-1.254c0.119-0.354,0.218-0.708,0.318-1.063C68.868,49.359,68.886,49.313,68.894,49.275z"/>
		<path class="st1" d="M98.526,30.571c0,12.932-10.047,20.365-30.139,22.276l0.507-3.572c0.028-0.115,0.065-0.232,0.092-0.354
			c0.2-0.776,0.362-1.574,0.498-2.395c0.208-1.34,0.319-2.719,0.319-4.123c0-0.199,0-0.4-0.011-0.59
			c2.212-0.397,4.425-0.826,6.628-1.25c7.597-1.715,11.403-5.033,11.403-9.993c0-6.519-2.174-9.774-6.517-9.774
			c-4.65,0-9.311,2.594-13.954,7.791c-0.299,0.334-0.599,0.68-0.887,1.022c-0.499,0.581-0.963,1.171-1.406,1.751
			c-0.438,0.572-0.853,1.151-1.243,1.723c-0.725,1.078-1.358,2.146-1.894,3.209c-0.11,0.219-0.218,0.424-0.309,0.634
			c-0.2,0.419-0.391,0.843-0.563,1.263c-0.118,0.28-0.219,0.559-0.315,0.833c-0.355,0.999-0.628,1.976-0.819,2.945
			c-0.034,0.19-0.069,0.38-0.097,0.571c-0.039,0.209-0.063,0.418-0.093,0.617c-0.018,0.136-0.027,0.273-0.045,0.411
			c-3.336-0.548-6.664-1.137-10.009-1.753c0.101-4.427,1.297-8.578,3.328-12.204c0.943-1.678,2.048-3.22,3.319-4.644
			c0.008-0.016,0.018-0.025,0.035-0.044c1.016-1.26,2.113-2.529,3.328-3.778l0.045-0.045c7.107-7.328,14.299-11,21.579-11
			c5.27,0,9.457,2.058,12.549,6.173c2.872,3.783,4.417,8.126,4.643,13.05C98.515,29.727,98.526,30.146,98.526,30.571z"/>
		<g>
			<path class="st1" d="M102.006,58.939c-2.022,0-3.971-0.024-5.848-0.072c-12.775-0.306-22.033-1.64-27.779-4.004l-3.946,10.408
				c2.349,1.051,4.951,1.886,7.817,2.503c1.204,0.299,2.684,0.562,4.433,0.769c5.658,0.736,14.09,1.088,25.323,1.088
				c3.408,0,5.116-1.773,5.116-5.348C107.123,60.719,105.415,58.939,102.006,58.939z M69.792,41.814
				c-3.318,0.616-6.637,1.197-9.964,1.741c-0.019,0-0.028,0.012-0.047,0.012h-0.008c0,0-0.017,0.005-0.046,0.017
				c-0.01,0-0.027,0-0.045,0.007v-0.023c-3.336-0.548-6.664-1.137-10.009-1.753c-0.008,0.189-0.008,0.391-0.008,0.598
				c0,3.737,0.789,7.302,2.212,10.527c0.833,0.073,1.686,0.135,2.557,0.189c-0.58,0.392-1.233,0.764-1.951,1.106
				c1.043,2.041,2.33,3.918,3.836,5.603c0.235,0.264,0.48,0.529,0.726,0.771c0,0.02,0.017,0.02,0.037,0.038
				c0.824,0.731,1.711,1.405,2.646,2.041c0.952-0.636,1.832-1.31,2.665-2.041c0.012-0.019,0.019-0.019,0.029-0.038
				c0.234-0.242,0.488-0.508,0.726-0.771c1.505-1.685,2.791-3.562,3.833-5.603c-0.715-0.343-1.369-0.715-1.949-1.106
				c0.87-0.055,1.723-0.116,2.566-0.197c0.181-0.4,0.345-0.816,0.498-1.223c0.164-0.417,0.309-0.837,0.444-1.254
				c0.11-0.354,0.218-0.708,0.318-1.063c0.009-0.033,0.027-0.08,0.035-0.117c0.028-0.115,0.065-0.232,0.092-0.354
				c0.208-0.776,0.371-1.574,0.498-2.395c0.216-1.34,0.325-2.719,0.325-4.115C69.809,42.205,69.803,42.004,69.792,41.814z"/>
			<path class="st5" d="M54.434,53.129c-0.58,0.392-1.233,0.764-1.951,1.106c-0.215-0.427-0.417-0.86-0.606-1.296
				C52.71,53.013,53.563,53.074,54.434,53.129z"/>
			<path class="st5" d="M68.375,54.863l-3.942,10.408c-1.696-0.75-3.267-1.612-4.702-2.583c0.949-0.634,1.828-1.312,2.66-2.044
				c0.016-0.016,0.024-0.016,0.031-0.039c0.24-0.238,0.485-0.5,0.726-0.763c1.504-1.689,2.79-3.571,3.831-5.607
				C67.418,54.453,67.881,54.66,68.375,54.863z"/>
			<path class="st4" d="M69.809,42.412c0,1.396-0.109,2.775-0.325,4.115c-0.127,0.82-0.29,1.618-0.498,2.395
				c-0.026,0.121-0.063,0.238-0.092,0.354c-0.008,0.037-0.026,0.084-0.035,0.117c-0.101,0.354-0.208,0.709-0.318,1.063
				c-0.136,0.417-0.28,0.837-0.444,1.254c-0.153,0.406-0.317,0.822-0.498,1.223c-0.199,0.443-0.406,0.877-0.617,1.304
				c-1.042,2.041-2.328,3.918-3.833,5.603c-0.237,0.264-0.491,0.529-0.726,0.771c-0.011,0.02-0.018,0.02-0.029,0.038
				c-0.833,0.731-1.713,1.405-2.665,2.041c-3.408,2.31-7.579,4.016-12.501,5.086c-1.215,0.299-2.703,0.562-4.463,0.769
				c-5.639,0.736-14.061,1.088-25.303,1.088c-3.41,0-5.116-1.773-5.116-5.348c0-3.564,1.706-5.344,5.116-5.344
				c2.021,0,3.97-0.024,5.838-0.072C37.163,58.541,46.89,57,52.483,54.235c0.718-0.343,1.371-0.715,1.951-1.106
				c-0.871-0.055-1.724-0.116-2.557-0.189C31.259,51.135,20.94,43.674,20.94,30.571c0-0.425,0.01-0.845,0.027-1.249
				c0.227-4.924,1.77-9.267,4.645-13.05c3.09-4.115,7.278-6.163,12.546-6.163c7.271,0,14.461,3.662,21.569,10.99l-0.045,0.045
				c-1.215,1.249-2.312,2.519-3.328,3.778c-0.018,0.019-0.027,0.028-0.035,0.044c-1.271,1.424-2.375,2.966-3.319,4.644
				c-0.3-0.343-0.588-0.688-0.898-1.022c-4.642-5.186-9.292-7.791-13.944-7.791c-4.343,0-6.518,3.256-6.518,9.774
				c0,4.952,3.807,8.288,11.406,9.993c2.202,0.424,4.407,0.853,6.627,1.25c3.346,0.616,6.673,1.205,10.009,1.753
				c0.018,0.005,0.036,0.017,0.045,0.017c0.029,0,0.046,0,0.046,0.007v-0.023c0-0.048,0-0.093-0.01-0.138
				c0-0.074-0.007-0.152-0.028-0.237l-0.008-0.036c0.029-0.199,0.054-0.408,0.093-0.617c0.027-0.191,0.063-0.381,0.097-0.571
				c0.191-0.97,0.464-1.946,0.819-2.945c0.097-0.274,0.197-0.553,0.315-0.833c0.172-0.42,0.362-0.844,0.563-1.263
				c0.099-0.214,0.198-0.425,0.309-0.634c0.535-1.063,1.169-2.131,1.894-3.209c0.391-0.571,0.799-1.15,1.243-1.723
				c0.443-0.58,0.907-1.17,1.406-1.751c0.352,0.626,0.679,1.271,0.979,1.921c0.099,0.221,0.188,0.447,0.289,0.664
				c0.189,0.443,0.361,0.889,0.525,1.342c0.164,0.445,0.317,0.907,0.453,1.37c0.653,2.192,1.024,4.515,1.079,6.907
				C69.803,42.004,69.809,42.205,69.809,42.412z"/>
			<path class="st2" d="M68.714,34.907l-8.929,8.694c-0.008-0.141-0.021-0.27-0.045-0.409c0.537-4.356,2.774-8.872,6.729-13.546
				C67.395,31.289,68.159,33.057,68.714,34.907z"/>
		</g>
	</g>
	<g>
		<path class="st0" d="M64.381,85.374c-0.428,0-0.842-0.003-1.235-0.015c-3.319-0.078-5.516-0.484-6.604-1.219
			c4.733-0.299,7.103-1.889,7.103-4.78c0-0.091-0.003-0.183-0.008-0.267c-0.047-1.043-0.375-1.965-0.98-2.77
			c-0.658-0.87-1.547-1.309-2.663-1.309c-1.547,0-3.076,0.783-4.587,2.344c-0.255,0.266-0.49,0.534-0.704,0.803
			c-0.003,0.004-0.005,0.007-0.009,0.01c-0.877,0.978-1.412,2.277-1.412,3.697c0,1.419,0.537,2.715,1.412,3.697
			c0.052,0.053,0.102,0.109,0.152,0.164c0.004,0.002,0.005,0.004,0.007,0.004c0.816,0.718,1.888,1.223,3.217,1.513
			c0.259,0.063,0.574,0.118,0.946,0.166c1.198,0.153,2.985,0.228,5.366,0.228c0.725,0,1.088-0.377,1.088-1.133
			C65.469,85.75,65.106,85.374,64.381,85.374z M57.035,78.936c0.986-1.099,1.973-1.648,2.958-1.648c0.92,0,1.382,0.689,1.382,2.073
			c0,1.048-0.807,1.754-2.418,2.118c-1.182,0.229-2.368,0.445-3.551,0.64C55.507,81.1,56.047,80.042,57.035,78.936z"/>
		<polygon class="st3" points="21.867,77.452 31.878,77.452 31.878,79.636 28.191,79.636 28.191,86.242 25.563,86.242 
			25.563,79.636 21.867,79.636 		"/>
		<path class="st3" d="M32.924,77.452h2.268v3.589h0.028c0.197-0.423,0.494-0.715,0.896-0.871c0.403-0.145,0.905-0.217,1.513-0.217
			c0.24,0,0.487,0,0.742,0.015c0.255,0.013,0.509,0.043,0.756,0.098c0.247,0.05,0.487,0.134,0.719,0.247
			c0.228,0.113,0.425,0.275,0.594,0.475c0.17,0.204,0.304,0.461,0.41,0.764c0.1,0.311,0.156,0.686,0.156,1.129v3.563h-2.275V82.68
			c0-0.606-0.487-0.91-1.469-0.91h-0.516c-0.494,0-0.87,0.113-1.145,0.338c-0.268,0.232-0.41,0.568-0.41,1.012v3.123h-2.268V77.452
			L32.924,77.452z"/>
		<path class="st3" d="M42.284,82.802c0-0.581,0.064-1.062,0.198-1.427c0.134-0.375,0.326-0.666,0.573-0.878
			c0.247-0.212,0.543-0.354,0.883-0.432c0.338-0.076,0.72-0.112,1.137-0.112h1.583c0.6,0,1.114,0.036,1.554,0.112
			c0.431,0.078,0.785,0.214,1.06,0.409c0.268,0.199,0.466,0.475,0.601,0.824c0.127,0.348,0.197,0.787,0.197,1.324v1.04h-5.517v0.38
			c0,0.332,0.113,0.551,0.346,0.666c0.227,0.112,0.579,0.168,1.053,0.168h0.698c0.305,0,0.545-0.022,0.723-0.056
			c0.169-0.044,0.296-0.1,0.381-0.161c0.085-0.066,0.134-0.136,0.155-0.219c0.021-0.095,0.028-0.176,0.028-0.271h2.133v0.271
			c0,0.387-0.084,0.703-0.24,0.952c-0.154,0.249-0.375,0.438-0.643,0.579c-0.275,0.137-0.592,0.23-0.953,0.281
			c-0.362,0.059-0.749,0.079-1.16,0.079h-1.702c-0.381,0-0.757-0.03-1.124-0.085c-0.361-0.057-0.693-0.182-0.983-0.39
			c-0.296-0.196-0.529-0.493-0.712-0.882c-0.184-0.389-0.27-0.912-0.27-1.578V82.802L42.284,82.802z M47.866,82.277
			c0-0.181-0.021-0.332-0.071-0.445c-0.05-0.112-0.133-0.203-0.261-0.267c-0.127-0.063-0.298-0.108-0.508-0.131
			c-0.213-0.021-0.48-0.026-0.813-0.026c-0.373,0-0.67,0.006-0.883,0.026c-0.218,0.022-0.381,0.067-0.501,0.131
			c-0.114,0.063-0.184,0.154-0.219,0.267c-0.036,0.113-0.057,0.265-0.057,0.445H47.866z"/>
		<rect x="69.803" y="77.452" class="st3" width="2.268" height="8.79"/>
		<path class="st3" d="M76.167,79.27h-2.275v-1.817h2.275V79.27z M76.167,86.242h-2.275v-6.198h2.275V86.242z"/>
		<path class="st3" d="M77.857,80.044h2.274v0.997h0.021c0.197-0.423,0.495-0.715,0.897-0.871c0.401-0.145,0.911-0.217,1.519-0.217
			c0.234,0,0.479,0,0.734,0.015c0.26,0.013,0.508,0.043,0.764,0.098c0.246,0.05,0.479,0.134,0.713,0.247
			c0.225,0.113,0.424,0.275,0.601,0.475c0.169,0.204,0.303,0.461,0.403,0.764c0.105,0.311,0.155,0.686,0.155,1.129v3.563h-2.274
			V82.68c0-0.606-0.488-0.91-1.463-0.91h-0.522c-0.487,0-0.869,0.113-1.146,0.338c-0.268,0.232-0.402,0.568-0.402,1.012v3.123
			h-2.274V80.044z"/>
		<polygon class="st3" points="87.5,77.452 89.776,77.452 89.776,82.086 90.2,82.086 92.198,80.044 95.179,80.044 92.149,82.947 
			95.547,86.242 92.651,86.242 90.219,83.763 89.776,83.763 89.776,86.242 87.5,86.242 		"/>
	</g>
</g>
</svg>
