<?xml version="1.0" encoding="utf-8"?>
<!-- Generator: Adobe Illustrator 16.0.0, SVG Export Plug-In . SVG Version: 6.00 Build 0)  -->
<!DOCTYPE svg PUBLIC "-//W3C//DTD SVG 1.1//EN" "http://www.w3.org/Graphics/SVG/1.1/DTD/svg11.dtd">
<svg version="1.1" id="Layer_1" xmlns="http://www.w3.org/2000/svg" xmlns:xlink="http://www.w3.org/1999/xlink" x="0px" y="0px"
	 width="187.849px" height="117.994px" viewBox="0 0 187.849 117.994" style="enable-background:new 0 0 187.849 117.994;"
	 xml:space="preserve">
<style type="text/css">
<![CDATA[
	.st0{fill:#131313;}
	.st1{fill:#EE2735;}
	.st2{fill:#C9202C;}
]]>
</style>
<g>
	<g>
		<path class="st2" d="M112.083,77.647l-1.007,7.079c-0.521,0.075-1.041,0.112-1.562,0.162c0.357-0.789,0.683-1.597,0.986-2.423
			c0.323-0.811,0.61-1.637,0.882-2.479c0.236-0.701,0.431-1.405,0.629-2.104C112.029,77.811,112.066,77.722,112.083,77.647z"/>
		<path class="st1" d="M170.811,40.575c0,25.63-19.911,40.361-59.735,44.151l1.007-7.079c0.056-0.23,0.128-0.465,0.181-0.699
			c0.396-1.545,0.719-3.123,0.986-4.743c0.414-2.661,0.633-5.391,0.633-8.178c0-0.393,0-0.791-0.021-1.168
			c4.385-0.788,8.771-1.637,13.139-2.479c15.057-3.397,22.603-9.975,22.603-19.805c0-12.92-4.311-19.371-12.918-19.371
			c-9.22,0-18.454,5.141-27.656,15.438c-0.593,0.664-1.185,1.346-1.761,2.028c-0.988,1.152-1.905,2.317-2.785,3.469
			c-0.865,1.135-1.688,2.284-2.464,3.414c-1.436,2.139-2.693,4.258-3.753,6.359c-0.217,0.434-0.432,0.847-0.61,1.262
			c-0.396,0.828-0.776,1.669-1.117,2.497c-0.231,0.558-0.431,1.115-0.626,1.653c-0.703,1.977-1.242,3.92-1.621,5.838
			c-0.068,0.377-0.141,0.756-0.194,1.133c-0.075,0.413-0.126,0.828-0.183,1.223c-0.034,0.27-0.054,0.541-0.089,0.813
			c-6.611-1.082-13.208-2.25-19.84-3.472c0.201-8.771,2.57-17.001,6.597-24.188c1.87-3.324,4.06-6.38,6.575-9.201
			c0.019-0.035,0.037-0.053,0.072-0.092c2.013-2.495,4.19-5.012,6.595-7.488l0.089-0.092C108.001,7.278,122.254,0,136.684,0
			c10.441,0,18.743,4.081,24.872,12.235c5.693,7.496,8.754,16.104,9.201,25.863C170.792,38.905,170.811,39.731,170.811,40.575z"/>
		<g>
			<path class="st1" d="M177.71,96.805c-4.008,0-7.869-0.054-11.588-0.145c-25.324-0.61-43.671-3.251-55.062-7.942l-7.818,20.633
				c4.653,2.085,9.811,3.737,15.489,4.958c2.391,0.594,5.322,1.114,8.788,1.526c11.214,1.459,27.927,2.159,50.19,2.159
				c6.756,0,10.139-3.522,10.139-10.604C187.849,100.33,184.466,96.805,177.71,96.805z M113.861,62.859
				c-6.575,1.222-13.152,2.375-19.746,3.448c-0.038,0-0.057,0.023-0.094,0.023h-0.016c0,0.015-0.035,0.015-0.092,0.035
				c-0.018,0-0.054,0-0.089,0.015v-0.05c-6.611-1.082-13.208-2.25-19.84-3.472c-0.017,0.377-0.017,0.775-0.017,1.187
				c0,7.404,1.565,14.467,4.386,20.866c1.65,0.142,3.342,0.265,5.067,0.375c-1.15,0.771-2.445,1.509-3.866,2.191
				c2.068,4.046,4.62,7.765,7.602,11.106c0.468,0.519,0.954,1.043,1.44,1.526c0,0.036,0.035,0.036,0.071,0.075
				c1.634,1.451,3.396,2.784,5.245,4.045c1.889-1.261,3.633-2.594,5.285-4.045c0.02-0.039,0.035-0.039,0.055-0.075
				c0.465-0.483,0.969-1.008,1.438-1.526c2.983-3.342,5.535-7.061,7.6-11.106c-1.418-0.683-2.714-1.42-3.863-2.191
				c1.727-0.11,3.416-0.233,5.087-0.398c0.357-0.789,0.683-1.613,0.986-2.423c0.323-0.826,0.61-1.655,0.882-2.479
				c0.217-0.701,0.431-1.405,0.629-2.104c0.018-0.072,0.055-0.161,0.071-0.235c0.056-0.23,0.128-0.465,0.181-0.699
				c0.414-1.545,0.736-3.123,0.986-4.743c0.432-2.661,0.647-5.391,0.647-8.159C113.897,63.635,113.882,63.236,113.861,62.859z"/>
			<path class="st2" d="M83.421,85.287c-1.15,0.771-2.445,1.509-3.866,2.191c-0.427-0.844-0.826-1.709-1.201-2.566
				C80.004,85.054,81.696,85.177,83.421,85.287z"/>
			<path class="st2" d="M111.052,88.718l-7.81,20.633c-3.363-1.482-6.479-3.194-9.323-5.119c1.883-1.258,3.623-2.6,5.273-4.052
				c0.031-0.029,0.047-0.029,0.063-0.075c0.474-0.475,0.961-0.994,1.436-1.514c2.981-3.348,5.531-7.076,7.594-11.112
				C109.156,87.909,110.072,88.322,111.052,88.718z"/>
			<path class="st0" d="M113.897,64.046c0,2.769-0.216,5.498-0.647,8.159c-0.25,1.62-0.572,3.198-0.986,4.743
				c-0.053,0.234-0.125,0.469-0.181,0.699c-0.017,0.074-0.054,0.163-0.071,0.235c-0.198,0.698-0.412,1.402-0.629,2.104
				c-0.271,0.824-0.559,1.653-0.882,2.479c-0.304,0.81-0.629,1.634-0.986,2.423c-0.395,0.881-0.808,1.746-1.224,2.59
				c-2.064,4.046-4.616,7.765-7.6,11.106c-0.469,0.519-0.973,1.043-1.438,1.526c-0.02,0.036-0.035,0.036-0.055,0.075
				c-1.652,1.451-3.396,2.784-5.285,4.045c-6.756,4.577-15.023,7.958-24.78,10.077c-2.407,0.594-5.354,1.114-8.842,1.526
				c-11.177,1.459-27.87,2.159-50.153,2.159C3.38,117.994,0,114.472,0,107.39c0-7.06,3.38-10.585,10.139-10.585
				c4.006,0,7.871-0.054,11.57-0.145c27.479-0.646,46.761-3.703,57.846-9.182c1.421-0.683,2.716-1.42,3.866-2.191
				c-1.725-0.11-3.417-0.233-5.067-0.375C37.49,81.337,17.038,66.546,17.038,40.575c0-0.844,0.018-1.67,0.054-2.477
				c0.451-9.76,3.505-18.367,9.205-25.863C32.422,4.081,40.721,0.019,51.164,0.019c14.413,0,28.663,7.26,42.75,21.779l-0.089,0.092
				c-2.405,2.477-4.583,4.993-6.595,7.488c-0.036,0.039-0.054,0.057-0.072,0.092c-2.516,2.821-4.706,5.877-6.575,9.201
				c-0.595-0.683-1.168-1.364-1.78-2.028C69.6,26.363,60.381,21.204,51.164,21.204c-8.608,0-12.919,6.451-12.919,19.371
				c0,9.815,7.546,16.428,22.607,19.805c4.366,0.843,8.732,1.691,13.133,2.479c6.632,1.222,13.229,2.39,19.84,3.472
				c0.035,0.015,0.071,0.035,0.089,0.035c0.057,0,0.092,0,0.092,0.015v-0.05c0-0.091,0-0.183-0.02-0.271
				c0-0.145-0.016-0.304-0.054-0.467c0-0.02-0.019-0.057-0.019-0.074c0.057-0.395,0.107-0.81,0.183-1.223
				c0.054-0.377,0.126-0.756,0.194-1.133c0.379-1.918,0.918-3.861,1.621-5.838c0.195-0.538,0.395-1.096,0.626-1.653
				c0.341-0.828,0.722-1.669,1.117-2.497c0.195-0.432,0.394-0.846,0.61-1.262c1.06-2.102,2.317-4.221,3.753-6.359
				c0.775-1.13,1.584-2.279,2.464-3.414c0.88-1.151,1.797-2.316,2.785-3.469c0.699,1.24,1.348,2.519,1.941,3.811
				c0.197,0.432,0.377,0.882,0.574,1.313c0.378,0.877,0.718,1.76,1.041,2.658c0.324,0.882,0.631,1.798,0.9,2.713
				c1.294,4.348,2.03,8.952,2.137,13.694C113.882,63.236,113.897,63.635,113.897,64.046z"/>
			<path d="M111.725,49.165L94.029,66.402c-0.015-0.278-0.045-0.534-0.09-0.81c1.066-8.635,5.498-17.588,13.34-26.849
				C109.111,42.001,110.625,45.499,111.725,49.165z"/>
		</g>
	</g>
</g>
</svg>
