<?xml version="1.0" encoding="utf-8"?>
<!-- Generator: Adobe Illustrator 16.0.0, SVG Export Plug-In . SVG Version: 6.00 Build 0)  -->
<!DOCTYPE svg PUBLIC "-//W3C//DTD SVG 1.1//EN" "http://www.w3.org/Graphics/SVG/1.1/DTD/svg11.dtd">
<svg version="1.1" id="Layer_1" xmlns="http://www.w3.org/2000/svg" xmlns:xlink="http://www.w3.org/1999/xlink" x="0px" y="0px"
	 width="421.42px" height="167px" viewBox="-48.444 -18.719 421.42 167" style="enable-background:new -48.444 -18.719 421.42 167;"
	 xml:space="preserve">
<style type="text/css">
<![CDATA[
	.st0{fill:#191819;}
	.st1{fill:#EC2227;}
	.st2{enable-background:new    ;}
	.st3{opacity:0.6;}
	.st4{fill:#FFFFFF;}
	.st5{fill:#060606;}
]]>
</style>
<g>
	<g class="st3">
		
			<image style="overflow:visible;" width="398" height="196" xlink:href="25D23AF2.png"  transform="matrix(1 0 0 1 -37.0239 -31.719)">
		</image>
	</g>
	<g>
		<g>
			<rect x="-0.21" y="2" class="st4" width="324.953" height="125.563"/>
		</g>
	</g>
	<g>
		<g>
			<path class="st1" d="M181.32,74.046c-1.432,0-2.815-0.006-4.139-0.041c-11.095-0.263-18.441-1.622-22.076-4.077
				c15.83-0.992,23.75-6.319,23.75-15.982c0-0.307-0.012-0.605-0.026-0.895c-0.156-3.482-1.252-6.563-3.277-9.257
				c-2.201-2.905-5.174-4.373-8.904-4.373c-5.175,0-10.283,2.617-15.339,7.841c-0.853,0.882-1.64,1.78-2.351,2.68
				c-0.014,0.008-0.018,0.017-0.03,0.027c-2.935,3.276-4.72,7.618-4.72,12.364c0,4.744,1.792,9.082,4.72,12.363
				c0.175,0.18,0.338,0.369,0.511,0.547c0.011,0.009,0.015,0.014,0.021,0.014c2.728,2.401,6.311,4.091,10.755,5.058
				c0.865,0.217,1.918,0.399,3.161,0.557c4.002,0.512,9.982,0.762,17.945,0.762c2.422,0,3.635-1.261,3.635-3.789
				C184.956,75.317,183.741,74.046,181.32,74.046z M156.756,52.527c3.292-3.672,6.595-5.514,9.891-5.514
				c3.076,0,4.619,2.305,4.619,6.931c0,3.514-2.697,5.867-8.085,7.082c-3.951,0.771-7.914,1.488-11.874,2.143
				C151.644,59.76,153.45,56.222,156.756,52.527z"/>
		</g>
		<g>
			<polygon class="st5" points="37.09,47.567 70.564,47.567 70.564,54.865 58.234,54.865 58.234,76.951 49.445,76.951 
				49.445,54.865 37.09,54.865 			"/>
		</g>
		<g>
			<path class="st5" d="M74.061,47.567h7.582v12h0.094c0.662-1.419,1.654-2.387,3.001-2.907c1.347-0.496,3.023-0.73,5.055-0.73
				c0.804,0,1.629,0,2.48,0.047c0.851,0.049,1.701,0.143,2.528,0.331c0.825,0.165,1.629,0.449,2.408,0.827
				c0.756,0.379,1.418,0.922,1.984,1.581c0.567,0.687,1.015,1.537,1.37,2.552c0.33,1.042,0.52,2.291,0.52,3.778v11.905h-7.605
				V65.046c0-2.029-1.629-3.047-4.913-3.047h-1.726c-1.653,0-2.905,0.378-3.826,1.135c-0.897,0.781-1.37,1.892-1.37,3.38v10.438
				H74.06L74.061,47.567L74.061,47.567z"/>
		</g>
		<g>
			<path class="st5" d="M105.36,65.449c0-1.938,0.212-3.544,0.661-4.771c0.449-1.254,1.086-2.224,1.914-2.931
				c0.826-0.71,1.817-1.181,2.953-1.44c1.133-0.262,2.408-0.378,3.802-0.378h5.292c2.007,0,3.73,0.116,5.196,0.378
				c1.44,0.261,2.623,0.71,3.543,1.37c0.896,0.659,1.559,1.581,2.009,2.739c0.424,1.183,0.66,2.646,0.66,4.439v3.473h-18.449v1.277
				c0,1.108,0.378,1.842,1.158,2.22c0.756,0.378,1.938,0.567,3.52,0.567h2.338c1.018,0,1.819-0.071,2.41-0.189
				c0.567-0.143,0.992-0.331,1.275-0.542c0.284-0.214,0.447-0.45,0.52-0.73c0.071-0.312,0.095-0.593,0.095-0.899h7.134v0.899
				c0,1.299-0.284,2.36-0.804,3.187c-0.52,0.827-1.252,1.466-2.149,1.938c-0.921,0.448-1.984,0.776-3.189,0.944
				c-1.204,0.188-2.503,0.261-3.874,0.261h-5.692c-1.276,0-2.528-0.097-3.756-0.285c-1.205-0.189-2.314-0.613-3.283-1.299
				c-0.992-0.66-1.772-1.652-2.387-2.954c-0.614-1.296-0.896-3.045-0.896-5.269L105.36,65.449L105.36,65.449z M124.022,63.7
				c0-0.613-0.071-1.109-0.237-1.488c-0.166-0.377-0.448-0.685-0.875-0.897c-0.425-0.211-0.992-0.354-1.701-0.425
				c-0.708-0.071-1.604-0.094-2.717-0.094c-1.251,0-2.243,0.021-2.952,0.094c-0.732,0.07-1.275,0.214-1.677,0.425
				c-0.378,0.214-0.614,0.521-0.732,0.897c-0.118,0.379-0.188,0.875-0.188,1.488H124.022z"/>
		</g>
		<g>
			<rect x="197.37" y="47.567" class="st5" width="7.582" height="29.384"/>
		</g>
		<g>
			<path class="st5" d="M218.652,53.638h-7.606v-6.07h7.606V53.638z M218.652,76.951h-7.606V56.235h7.606V76.951z"/>
		</g>
		<g>
			<path class="st5" d="M224.297,56.235h7.604v3.332h0.073c0.661-1.419,1.652-2.387,2.999-2.907c1.346-0.496,3.048-0.73,5.078-0.73
				c0.778,0,1.606,0,2.459,0.047c0.873,0.049,1.698,0.143,2.55,0.331c0.827,0.165,1.605,0.449,2.386,0.827
				c0.757,0.379,1.419,0.922,2.009,1.581c0.567,0.687,1.016,1.537,1.346,2.552c0.354,1.042,0.521,2.291,0.521,3.778v11.905h-7.606
				V65.046c0-2.029-1.631-3.047-4.891-3.047h-1.746c-1.632,0-2.906,0.378-3.828,1.135c-0.898,0.781-1.349,1.892-1.349,3.38v10.438
				h-7.604V56.235L224.297,56.235z"/>
		</g>
		<g>
			<polygon class="st5" points="256.543,47.567 264.148,47.567 264.148,63.062 265.566,63.062 272.25,56.235 282.219,56.235 
				272.086,65.945 283.448,76.951 273.763,76.951 265.637,68.661 264.148,68.661 264.148,76.951 256.543,76.951 			"/>
		</g>
	</g>
	<g class="st2">
		<path class="st0" d="M27.655,36.42l-0.833-11.95h0.833l0.515,8.368c0.106,1.773,0.089,2.217,0.106,2.678h0.035
			c0.178-0.461,0.372-0.887,1.206-2.535l4.326-8.511h0.851l0.532,7.73c0.124,1.791,0.177,2.854,0.177,3.315h0.036
			c0.337-0.939,0.674-1.702,1.152-2.659l4.202-8.387h0.869l-6.064,11.95h-0.851l-0.567-7.802c-0.124-1.613-0.143-1.844-0.054-3.333
			h-0.053c-0.391,1.063-0.674,1.737-1.152,2.642l-4.397,8.493H27.655z"/>
		<path class="st0" d="M46.896,35.924c-0.391,0.248-1.383,0.709-2.873,0.709c-2.34,0-3.262-1.737-3.262-3.458
			c0-2.659,2.146-5.479,4.77-5.479c1.72,0,2.464,1.011,2.464,2.039c0,2.411-3.103,2.73-6.312,2.66
			c-0.142,0.514-0.071,1.489,0.159,2.057c0.408,0.992,1.241,1.472,2.287,1.472c1.224,0,2.057-0.391,2.519-0.656L46.896,35.924z
			 M47.144,29.789c0-0.923-0.763-1.384-1.756-1.384c-1.772,0-3.174,1.809-3.599,3.298c2.854,0.054,5.354-0.23,5.354-1.896V29.789z"
			/>
		<path class="st0" d="M49.042,36.42l2.429-12.695h0.833L49.875,36.42H49.042z"/>
		<path class="st0" d="M59.22,35.959c-0.372,0.195-1.418,0.674-2.908,0.674c-2.464,0-3.404-1.702-3.404-3.209
			c0-3.067,2.358-5.728,5.337-5.728c1.029,0,1.969,0.372,2.164,0.55l-0.319,0.691c-0.443-0.23-1.1-0.479-1.969-0.479
			c-2.606,0-4.361,2.446-4.361,4.805c0,1.543,0.833,2.66,2.695,2.66c1.17,0,2.057-0.408,2.518-0.656L59.22,35.959z"/>
		<path class="st0" d="M69.523,31.561c0,2.5-1.985,5.071-4.858,5.071c-2.411,0-3.616-1.862-3.616-3.688
			c0-2.996,2.181-5.248,4.822-5.248C68.459,27.696,69.523,29.646,69.523,31.561z M61.899,32.909c0,1.773,1.224,3.032,2.854,3.032
			c1.969,0,3.919-1.791,3.919-4.415c0-1.135-0.656-3.139-2.837-3.139C63.619,28.387,61.899,30.374,61.899,32.909z"/>
		<path class="st0" d="M70.926,36.42l1.224-6.454c0.142-0.691,0.248-1.365,0.336-2.057h0.78l-0.301,1.809h0.053
			c0.834-1.259,2.039-2.021,3.352-2.021c1.365,0,2.109,0.798,2.181,2.234c0.78-1.365,1.968-2.199,3.6-2.234
			c0.727,0,2.305,0.391,2.305,2.394c0,0.408-0.035,0.939-0.124,1.437l-0.939,4.894h-0.834l0.922-4.858
			c0.054-0.283,0.124-0.78,0.124-1.099c0-1.26-0.442-2.039-1.808-2.039c-1.295,0-2.979,1.24-3.369,3.386l-0.852,4.61h-0.833
			l0.976-5.035c0.07-0.391,0.106-0.691,0.106-0.993c0-0.869-0.195-1.968-1.827-1.968c-1.294,0-3.067,1.56-3.422,3.546l-0.815,4.45
			H70.926z"/>
		<path class="st0" d="M92.418,35.924c-0.391,0.248-1.383,0.709-2.873,0.709c-2.34,0-3.262-1.737-3.262-3.458
			c0-2.659,2.146-5.479,4.77-5.479c1.72,0,2.464,1.011,2.464,2.039c0,2.411-3.103,2.73-6.312,2.66
			c-0.142,0.514-0.071,1.489,0.159,2.057c0.408,0.992,1.241,1.472,2.287,1.472c1.224,0,2.057-0.391,2.519-0.656L92.418,35.924z
			 M92.667,29.789c0-0.923-0.763-1.384-1.756-1.384c-1.772,0-3.174,1.809-3.599,3.298c2.854,0.054,5.354-0.23,5.354-1.896V29.789z"
			/>
		<path class="st0" d="M101.108,26.029l-0.354,1.88h2.357l-0.142,0.674h-2.358l-0.886,4.752c-0.106,0.567-0.195,0.993-0.195,1.613
			c0,0.639,0.337,0.993,0.957,0.993c0.302,0,0.567-0.036,0.763-0.106l0.089,0.656c-0.213,0.088-0.585,0.142-0.993,0.142
			c-1.313,0-1.667-0.922-1.667-1.702c0-0.585,0.089-1.152,0.195-1.667l0.904-4.681h-1.383l0.142-0.674h1.383l0.302-1.613
			L101.108,26.029z"/>
		<path class="st0" d="M111.977,31.561c0,2.5-1.985,5.071-4.858,5.071c-2.411,0-3.616-1.862-3.616-3.688
			c0-2.996,2.181-5.248,4.822-5.248C110.914,27.696,111.977,29.646,111.977,31.561z M104.353,32.909
			c0,1.773,1.224,3.032,2.854,3.032c1.969,0,3.919-1.791,3.919-4.415c0-1.135-0.656-3.139-2.837-3.139
			C106.073,28.387,104.353,30.374,104.353,32.909z"/>
	</g>
	<g class="st2">
		<path class="st1" d="M96.786,102.043l-2.782,4.942h-0.997l8.016-13.997h0.956l2.616,13.997h-0.955l-0.914-4.942H96.786z
			 M102.559,101.212l-0.893-4.922c-0.104-0.581-0.271-1.536-0.354-2.242h-0.041c-0.374,0.727-0.686,1.37-1.143,2.18l-2.824,4.984
			H102.559z"/>
		<path class="st1" d="M106.627,106.985l2.845-14.869h0.977l-2.846,14.869H106.627z"/>
		<path class="st1" d="M111.258,106.985l2.845-14.869h0.976l-2.845,14.869H111.258z"/>
		<path class="st1" d="M129.676,101.295c0,2.929-2.326,5.939-5.69,5.939c-2.824,0-4.236-2.181-4.236-4.319
			c0-3.51,2.555-6.147,5.648-6.147C128.43,96.767,129.676,99.052,129.676,101.295z M120.747,102.873
			c0,2.077,1.433,3.552,3.343,3.552c2.306,0,4.59-2.098,4.59-5.171c0-1.329-0.769-3.676-3.322-3.676
			C122.76,97.578,120.747,99.903,120.747,102.873z"/>
		<path class="st1" d="M131.46,106.985l1.744-9.179h-1.412l0.166-0.79h1.412l0.083-0.478c0.291-1.661,0.831-3.011,1.703-3.82
			c0.54-0.499,1.329-0.852,2.14-0.852c0.789,0,1.204,0.166,1.412,0.312l-0.312,0.789c-0.291-0.166-0.728-0.249-1.143-0.249
			c-1.724,0-2.43,1.64-2.824,3.842l-0.083,0.456h2.554l-0.166,0.79h-2.554l-1.745,9.179H131.46z"/>
		<path class="st1" d="M150.814,101.295c0,2.929-2.326,5.939-5.69,5.939c-2.824,0-4.236-2.181-4.236-4.319
			c0-3.51,2.555-6.147,5.648-6.147C149.568,96.767,150.814,99.052,150.814,101.295z M141.884,102.873
			c0,2.077,1.433,3.552,3.343,3.552c2.306,0,4.59-2.098,4.59-5.171c0-1.329-0.769-3.676-3.322-3.676
			C143.898,97.578,141.884,99.903,141.884,102.873z"/>
		<path class="st1" d="M162.171,97.016l-1.453,7.56c-0.146,0.811-0.291,1.6-0.374,2.409h-0.914l0.354-2.16h-0.042
			c-0.81,1.288-2.326,2.409-3.862,2.409c-1.08,0-3.053-0.27-3.053-3.302c0-0.415,0.063-0.955,0.207-1.683l1.018-5.233h0.977
			l-1.038,5.379c-0.125,0.645-0.188,1.122-0.188,1.558c0,1.475,0.603,2.409,2.284,2.409c1.475,0,3.635-1.599,4.092-4.029
			l1.018-5.316H162.171z"/>
		<path class="st1" d="M163.935,106.985l1.287-6.749c0.208-1.08,0.396-2.14,0.54-3.22h0.893c-0.124,0.769-0.248,1.537-0.395,2.326
			h0.063c0.645-1.453,1.744-2.575,3.137-2.575c0.166,0,0.414,0.021,0.539,0.063l-0.187,0.955c-0.146-0.041-0.333-0.062-0.603-0.062
			c-1.162,0-2.907,1.765-3.447,4.693l-0.852,4.568H163.935z"/>
		<path class="st1" d="M174.192,105.802c0.457,0.312,1.246,0.603,1.973,0.603c1.412,0,2.43-0.977,2.43-2.098
			c0-0.914-0.311-1.475-1.619-2.181c-1.35-0.727-1.703-1.641-1.703-2.492c0-1.516,1.392-2.866,3.26-2.866
			c0.811,0,1.6,0.271,1.911,0.52l-0.353,0.831c-0.291-0.208-0.936-0.52-1.683-0.52c-1.226,0-2.181,0.852-2.181,1.91
			c0,0.935,0.52,1.434,1.62,2.035c1.308,0.706,1.724,1.641,1.724,2.534c0,1.932-1.641,3.156-3.469,3.156
			c-1.037,0-1.848-0.332-2.264-0.644L174.192,105.802z"/>
		<path class="st1" d="M189.081,106.404c-0.457,0.29-1.619,0.83-3.363,0.83c-2.742,0-3.822-2.035-3.822-4.05
			c0-3.114,2.514-6.417,5.587-6.417c2.015,0,2.887,1.184,2.887,2.389c0,2.824-3.634,3.198-7.394,3.115
			c-0.166,0.602-0.083,1.744,0.188,2.409c0.477,1.162,1.453,1.724,2.679,1.724c1.433,0,2.409-0.457,2.948-0.769L189.081,106.404z
			 M189.372,99.219c0-1.08-0.893-1.62-2.057-1.62c-2.076,0-3.717,2.118-4.215,3.862c3.344,0.063,6.271-0.27,6.271-2.222V99.219z"/>
		<path class="st1" d="M191.592,106.985l1.287-6.749c0.208-1.08,0.395-2.14,0.54-3.22h0.894c-0.125,0.769-0.25,1.537-0.395,2.326
			h0.063c0.643-1.453,1.744-2.575,3.135-2.575c0.166,0,0.416,0.021,0.541,0.063l-0.188,0.955c-0.146-0.041-0.332-0.062-0.603-0.062
			c-1.163,0-2.907,1.765-3.447,4.693l-0.852,4.568H191.592z"/>
		<path class="st1" d="M199.524,97.016l1.371,6.563c0.229,1.143,0.395,1.952,0.457,2.306h0.041c0.188-0.354,0.395-0.872,1.08-2.035
			l4.029-6.833h1.037l-5.939,9.969h-0.913l-2.14-9.969H199.524z"/>
		<path class="st1" d="M207.871,106.985l1.911-9.969h0.976l-1.911,9.969H207.871z M210.778,94.92c-0.477,0-0.747-0.437-0.747-0.872
			c0-0.457,0.312-0.873,0.789-0.873s0.769,0.395,0.789,0.873c-0.021,0.436-0.29,0.872-0.81,0.872H210.778z"/>
		<path class="st1" d="M219.791,106.445c-0.437,0.229-1.661,0.789-3.405,0.789c-2.887,0-3.988-1.993-3.988-3.759
			c0-3.593,2.763-6.708,6.252-6.708c1.204,0,2.305,0.437,2.533,0.645l-0.374,0.81c-0.519-0.271-1.288-0.561-2.306-0.561
			c-3.053,0-5.108,2.865-5.108,5.628c0,1.807,0.976,3.115,3.157,3.115c1.37,0,2.408-0.479,2.949-0.769L219.791,106.445z"/>
		<path class="st1" d="M229.051,106.404c-0.457,0.29-1.62,0.83-3.364,0.83c-2.741,0-3.821-2.035-3.821-4.05
			c0-3.114,2.513-6.417,5.586-6.417c2.015,0,2.887,1.184,2.887,2.389c0,2.824-3.634,3.198-7.393,3.115
			c-0.166,0.602-0.084,1.744,0.187,2.409c0.478,1.162,1.454,1.724,2.679,1.724c1.434,0,2.409-0.457,2.949-0.769L229.051,106.404z
			 M229.342,99.219c0-1.08-0.894-1.62-2.057-1.62c-2.076,0-3.717,2.118-4.215,3.862c3.343,0.063,6.271-0.27,6.271-2.222V99.219z"/>
		<path class="st1" d="M231.479,105.802c0.457,0.312,1.246,0.603,1.973,0.603c1.412,0,2.43-0.977,2.43-2.098
			c0-0.914-0.311-1.475-1.619-2.181c-1.35-0.727-1.703-1.641-1.703-2.492c0-1.516,1.392-2.866,3.26-2.866
			c0.811,0,1.6,0.271,1.911,0.52l-0.353,0.831c-0.291-0.208-0.936-0.52-1.683-0.52c-1.226,0-2.181,0.852-2.181,1.91
			c0,0.935,0.52,1.434,1.62,2.035c1.308,0.706,1.724,1.641,1.724,2.534c0,1.932-1.641,3.156-3.469,3.156
			c-1.037,0-1.848-0.332-2.264-0.644L231.479,105.802z"/>
		<path class="st1" d="M239.495,107.234c-0.499,0-0.852-0.457-0.852-0.955c0-0.561,0.373-0.977,0.893-0.977s0.872,0.416,0.872,0.977
			c0,0.498-0.353,0.955-0.893,0.955H239.495z"/>
		<path class="st1" d="M243.335,107.234c-0.499,0-0.852-0.457-0.852-0.955c0-0.561,0.374-0.977,0.894-0.977
			c0.519,0,0.871,0.416,0.871,0.977c0,0.498-0.353,0.955-0.893,0.955H243.335z"/>
		<path class="st1" d="M247.176,107.234c-0.498,0-0.852-0.457-0.852-0.955c0-0.561,0.375-0.977,0.894-0.977s0.872,0.416,0.872,0.977
			c0,0.498-0.354,0.955-0.893,0.955H247.176z"/>
		<path class="st1" d="M253.323,92.988h0.977l-2.533,13.166h6.375l-0.166,0.831h-7.331L253.323,92.988z"/>
		<path class="st1" d="M259.988,106.985l1.911-9.969h0.976l-1.911,9.969H259.988z M262.895,94.92c-0.477,0-0.747-0.437-0.747-0.872
			c0-0.457,0.312-0.873,0.789-0.873s0.769,0.395,0.789,0.873c-0.021,0.436-0.29,0.872-0.81,0.872H262.895z"/>
		<path class="st1" d="M264.619,106.985l1.433-7.56c0.166-0.81,0.291-1.599,0.395-2.409h0.914l-0.332,2.285h0.041
			c0.872-1.495,2.471-2.534,4.216-2.534c0.831,0,2.804,0.333,2.804,3.095c0,0.395-0.083,1.018-0.188,1.599l-1.059,5.524h-0.977
			l1.08-5.67c0.063-0.373,0.146-0.893,0.146-1.308c0-1.351-0.54-2.389-2.222-2.389c-1.475,0-3.863,1.578-4.383,4.465l-0.893,4.901
			H264.619z"/>
		<path class="st1" d="M276.391,106.985l2.846-14.869h0.976l-1.869,9.739h0.042c0.332-0.353,0.768-0.727,1.059-0.976l4.486-3.863
			h1.204l-4.714,4.092l3.406,5.877h-1.06l-3.095-5.337l-1.537,1.225l-0.768,4.112H276.391z"/>
		<path class="st1" d="M292.547,106.404c-0.457,0.29-1.621,0.83-3.365,0.83c-2.741,0-3.82-2.035-3.82-4.05
			c0-3.114,2.512-6.417,5.586-6.417c2.014,0,2.887,1.184,2.887,2.389c0,2.824-3.635,3.198-7.394,3.115
			c-0.166,0.602-0.083,1.744,0.187,2.409c0.479,1.162,1.454,1.724,2.68,1.724c1.433,0,2.408-0.457,2.949-0.769L292.547,106.404z
			 M292.837,99.219c0-1.08-0.894-1.62-2.056-1.62c-2.077,0-3.718,2.118-4.216,3.862c3.343,0.063,6.271-0.27,6.271-2.222V99.219z"/>
		<path class="st1" d="M305.733,92.116l-2.389,12.46c-0.146,0.811-0.291,1.6-0.374,2.409h-0.894l0.416-2.389h-0.041
			c-1.102,1.62-2.492,2.638-4.279,2.638c-2.367,0-3.26-1.932-3.26-3.759c0-3.676,3.053-6.708,6.625-6.708
			c0.872,0,1.807,0.166,2.305,0.395l0.914-5.046H305.733z M303.676,98.035c-0.478-0.229-1.225-0.437-2.201-0.437
			c-2.99,0-5.566,2.45-5.566,5.836c0,1.162,0.354,2.99,2.514,2.99c1.869,0,4.049-2.181,4.506-4.61L303.676,98.035z"/>
	</g>
</g>
<rect x="-0.21" y="124.948" class="st1" width="324.953" height="2.614"/>
</svg>
