<?xml version="1.0" encoding="utf-8"?>
<!-- Generator: Adobe Illustrator 16.0.0, SVG Export Plug-In . SVG Version: 6.00 Build 0)  -->
<!DOCTYPE svg PUBLIC "-//W3C//DTD SVG 1.1//EN" "http://www.w3.org/Graphics/SVG/1.1/DTD/svg11.dtd">
<svg version="1.1" id="Layer_1" xmlns="http://www.w3.org/2000/svg" xmlns:xlink="http://www.w3.org/1999/xlink" x="0px" y="0px"
	 width="98px" height="35.5px" viewBox="0 0 98 35.5" enable-background="new 0 0 98 35.5" xml:space="preserve">
<g>
	<g>
		<path fill="#F7941E" d="M13.181,17.842c-0.605,0.203-1.27,0.402-2,0.566c-2.506,0.486-5.012,0.949-7.519,1.375l-2.123-1.797
			c0.487-1.598,1.354-3.215,2.608-4.896L13.181,17.842z"/>
		<path fill="#F7941E" d="M34.423,29.001c-0.809,2.768-2.83,5.01-5.438,6.098c0.484-0.52,0.729-1.332,0.729-2.385
			c0-2.139-1.029-3.209-3.092-3.209c-4.711,0-8.75-0.201-12.107-0.582l-0.02-0.023l-4.283-3.619c4.242-0.723,7.537-1.998,9.885-3.8
			L34.423,29.001z"/>
		<path fill="#FFF200" d="M34.806,15.863v10.468c0,0.928-0.139,1.824-0.383,2.67L20.097,21.48c2.785-2.08,4.262-4.914,4.383-8.461
			L34.806,15.863z"/>
		<path fill="#8DC63F" d="M34.806,9.641v6.223L24.48,13.02c0.043-0.229,0.043-0.434,0.043-0.65c0-3.131-0.852-5.906-2.568-8.307
			l11.557,0.783C34.345,6.266,34.806,7.896,34.806,9.641z"/>
		<path fill="#2B3990" d="M33.511,4.846L21.955,4.063c-0.082-0.127-0.162-0.223-0.246-0.344c-1.574-2.084-3.596-3.277-6.102-3.619
			h9.666C28.785,0.1,31.876,1.996,33.511,4.846z"/>
		<path fill="#EC2227" d="M3.662,19.783c-0.868,0.162-1.735,0.303-2.586,0.445c0.061-0.727,0.222-1.473,0.463-2.242L3.662,19.783z"
			/>
		<path fill="#EC2227" d="M14.496,28.9c-4.77-0.561-8.167-1.533-10.208-2.91c2.144-0.145,4.125-0.365,5.924-0.709L14.496,28.9z"/>
		<path fill="#FFF200" d="M18.074,12.369c0,2.525-1.637,4.346-4.893,5.473L4.147,13.09c0.445-0.625,0.97-1.264,1.556-1.92
			c0.909-1.027,1.839-1.875,2.75-2.539l9.58,2.623C18.054,11.596,18.074,11.977,18.074,12.369z"/>
		<path fill="#8DC63F" d="M18.033,11.254l-9.58-2.623c1.9-1.459,3.777-2.168,5.68-2.168C16.498,6.463,17.791,8.063,18.033,11.254z"
			/>
	</g>
	<g opacity="0.8">
		<path fill="#D1D3D4" d="M47.326,25.386h-0.061c-0.545,0.041-1.637,0.117-2.502,0.117c-1.486,0-2.637-0.895-2.637-3.438v-2.111
			c0-2.574,1.15-3.438,2.637-3.438c0.881,0,2.002,0.084,2.547,0.135h0.049c0.15,0,0.178-0.074,0.178-0.166v-0.779
			c0-0.131-0.105-0.176-0.24-0.191c-0.668-0.105-1.592-0.242-2.549-0.242c-1.863,0-3.998,0.971-3.998,4.682v2.111
			c0,3.68,2.135,4.684,3.998,4.684c1.289,0,1.881-0.076,2.518-0.199c0.166-0.029,0.303-0.121,0.303-0.303v-0.619
			C47.568,25.46,47.494,25.386,47.326,25.386z"/>
		<path fill="#D1D3D4" d="M55.24,18.305h-0.789c-0.166,0-0.271,0.133-0.271,0.305v4.576c0,1.82-0.773,2.398-1.793,2.398h-0.131
			c-1.016,0-1.793-0.578-1.793-2.398v-4.576c0-0.172-0.105-0.305-0.273-0.305h-0.785c-0.168,0-0.273,0.133-0.273,0.305v4.576
			c0,2.988,2.092,3.564,3.125,3.564h0.131c1.035,0,3.125-0.576,3.125-3.564v-4.576C55.511,18.438,55.406,18.305,55.24,18.305z"/>
		<path fill="#D1D3D4" d="M61.185,22.259l-1.504-0.89c-0.697-0.41-1.045-0.697-1.045-1.15c0-0.777,0.557-0.889,1.408-0.889
			s1.816,0.084,2.348,0.125h0.049c0.152,0,0.258-0.076,0.258-0.258v-0.496c0-0.17-0.09-0.275-0.289-0.305
			c-0.711-0.127-1.514-0.201-2.365-0.201c-1.563,0-2.742,0.443-2.742,2.023c0,0.953,0.621,1.602,1.545,2.16l1.533,0.912
			c0.865,0.518,1.135,0.805,1.135,1.256c0,0.822-0.514,1.082-1.498,1.082c-0.549,0-1.654-0.08-2.383-0.168h-0.061
			c-0.148,0-0.271,0.088-0.271,0.229v0.531c0,0.166,0.123,0.25,0.318,0.301c0.742,0.168,1.83,0.229,2.396,0.229
			c1.695,0,2.83-0.654,2.83-2.203C62.847,23.654,62.441,23.007,61.185,22.259z"/>
		<path fill="#D1D3D4" d="M68.324,25.667h-1.23c-0.832,0-1.119-0.15-1.119-1.025v-5.275h2.363c0.164,0,0.287-0.125,0.287-0.275
			v-0.514c0-0.164-0.123-0.273-0.287-0.273h-2.363v-1.607c0-0.15-0.107-0.289-0.262-0.289c0,0-0.016,0-0.029,0l-0.742,0.125
			c-0.17,0.029-0.301,0.131-0.301,0.285v7.824c0,1.639,0.818,2.107,2.242,2.107c0.543,0,1.168-0.047,1.455-0.092
			c0.227-0.029,0.303-0.119,0.303-0.258v-0.516C68.64,25.734,68.533,25.667,68.324,25.667z"/>
		<path fill="#D1D3D4" d="M73.14,18.195c-2.229,0-3.365,1.475-3.365,3.701v1.154c0,2.23,1.137,3.699,3.365,3.699
			c2.23,0,3.383-1.469,3.383-3.699v-1.154C76.523,19.67,75.371,18.195,73.14,18.195z M75.185,23.05c0,1.559-0.635,2.533-2.045,2.533
			c-1.424,0-2.029-0.986-2.029-2.533v-1.154c0-1.556,0.623-2.529,2.029-2.529c1.428,0,2.045,0.986,2.045,2.529V23.05z"/>
		<path fill="#D1D3D4" d="M85.65,18.195H85.3c-0.908,0-1.516,0.154-1.971,0.549c-0.471-0.428-1.061-0.549-1.971-0.549h-0.348
			c-1.82,0-2.699,1.096-2.699,2.658v5.486c0,0.168,0.107,0.303,0.27,0.303h0.793c0.166,0,0.271-0.135,0.271-0.303v-5.486
			c0-1.311,0.576-1.486,1.365-1.486h0.348c0.971,0,1.307,0.162,1.307,1.031v5.941c0,0.168,0.102,0.303,0.271,0.303h0.789
			c0.164,0,0.27-0.135,0.27-0.303v-5.941c0-0.869,0.336-1.031,1.305-1.031h0.35c0.805,0,1.361,0.176,1.361,1.486v5.486
			c0,0.168,0.109,0.303,0.273,0.303h0.791c0.164,0,0.27-0.135,0.27-0.303v-5.486C88.345,19.291,87.468,18.195,85.65,18.195z"/>
		<g>
			<path fill="#D1D3D4" d="M92.525,26.707c-0.814,0-1.432-0.086-1.945-0.166c-0.197-0.033-0.221-0.08-0.221-0.207v-0.475
				c0-0.125,0.092-0.186,0.197-0.186c0.016,0,0.023,0,0.039,0c0.539,0.045,1.393,0.072,1.93,0.072c1.406,0,1.783-0.564,1.783-1.383
				c0-0.588-0.342-0.914-1.406-1.572l-1.137-0.691c-1.08-0.654-1.617-1.251-1.617-2.189c0-1.418,1.016-2.078,2.799-2.078
				c0.691,0,1.598,0.072,2.039,0.145c0.117,0.02,0.199,0.08,0.199,0.197v0.504c0,0.117-0.082,0.191-0.199,0.191
				c-0.01,0-0.01,0-0.023,0c-0.516-0.039-1.334-0.074-2.016-0.074c-1.203,0-1.719,0.26-1.719,1.115c0,0.549,0.383,0.875,1.273,1.416
				l1.076,0.644c1.361,0.807,1.844,1.455,1.844,2.393C95.421,25.488,94.835,26.707,92.525,26.707z"/>
		</g>
	</g>
</g>
<g>
	<path fill="#F1F2F2" d="M41.037,30.015v2.473c0,1.043,0.488,1.443,1.088,1.443c0.684,0,1.15-0.434,1.15-1.443v-2.473h0.289v2.447
		c0,1.256-0.678,1.715-1.451,1.715c-0.717,0-1.363-0.414-1.363-1.67v-2.492H41.037z"/>
	<path fill="#F1F2F2" d="M44.552,31.892c0-0.268-0.008-0.467-0.025-0.699h0.271l0.018,0.521h0.012
		c0.16-0.326,0.529-0.588,1.004-0.588c0.277,0,1.021,0.141,1.021,1.232v1.75h-0.291v-1.727c0-0.535-0.209-1.012-0.811-1.012
		c-0.406,0-0.758,0.291-0.873,0.672c-0.018,0.066-0.035,0.164-0.035,0.258v1.809h-0.291V31.892z"/>
	<path fill="#F1F2F2" d="M47.808,29.791h0.289v4.318h-0.289V29.791z"/>
	<path fill="#F1F2F2" d="M49.226,30.609c-0.133,0-0.223-0.111-0.223-0.246s0.104-0.258,0.236-0.258c0.135,0,0.23,0.115,0.23,0.258
		c0,0.135-0.09,0.246-0.234,0.246H49.226z M49.093,34.109v-2.916h0.295v2.916H49.093z"/>
	<path fill="#F1F2F2" d="M50.365,31.892c0-0.268-0.008-0.467-0.025-0.699h0.273l0.018,0.512h0.012
		c0.188-0.334,0.469-0.578,0.949-0.578c0.4,0,0.711,0.266,0.838,0.633h0.012c0.078-0.174,0.188-0.305,0.299-0.396
		c0.188-0.152,0.381-0.236,0.693-0.236c0.283,0,0.951,0.156,0.951,1.262v1.721h-0.291v-1.695c0-0.654-0.256-1.043-0.76-1.043
		c-0.363,0-0.65,0.273-0.764,0.574c-0.027,0.09-0.051,0.184-0.051,0.297v1.867H52.23v-1.828c0-0.521-0.252-0.91-0.723-0.91
		c-0.391,0-0.699,0.316-0.811,0.654c-0.023,0.084-0.041,0.182-0.041,0.289v1.795h-0.291V31.892z"/>
	<path fill="#F1F2F2" d="M55.472,30.609c-0.133,0-0.227-0.111-0.227-0.246s0.105-0.258,0.24-0.258c0.133,0,0.229,0.115,0.229,0.258
		c0,0.135-0.09,0.246-0.236,0.246H55.472z M55.339,34.109v-2.916h0.291v2.916H55.339z"/>
	<path fill="#F1F2F2" d="M57.009,30.548v0.645h0.832v0.236h-0.832v1.896c0,0.369,0.115,0.6,0.424,0.6
		c0.154,0,0.262-0.018,0.334-0.041l0.037,0.219c-0.098,0.037-0.23,0.07-0.406,0.07c-0.213,0-0.389-0.07-0.498-0.203
		c-0.135-0.152-0.184-0.402-0.184-0.699v-1.842h-0.49v-0.236h0.49V30.66L57.009,30.548z"/>
	<path fill="#F1F2F2" d="M58.492,32.619c0,0.934,0.51,1.307,1.111,1.307c0.424,0,0.643-0.088,0.807-0.168l0.076,0.223
		c-0.109,0.063-0.41,0.193-0.92,0.193c-0.838,0-1.361-0.613-1.361-1.469c0-0.971,0.561-1.578,1.314-1.578
		c0.951,0,1.135,0.898,1.135,1.318c0,0.078,0,0.121-0.014,0.174H58.492z M60.351,32.388c0.006-0.402-0.168-1.018-0.869-1.018
		c-0.645,0-0.918,0.57-0.971,1.018H60.351z"/>
	<path fill="#F1F2F2" d="M63.722,29.791v3.646c0,0.211,0.006,0.467,0.023,0.672h-0.26l-0.025-0.551h-0.012
		c-0.152,0.32-0.496,0.619-1.037,0.619c-0.725,0-1.258-0.602-1.258-1.473c-0.008-0.971,0.592-1.578,1.311-1.578
		c0.506,0,0.826,0.262,0.953,0.518h0.014v-1.854H63.722z M63.431,32.349c0-0.078-0.008-0.184-0.031-0.27
		c-0.098-0.387-0.443-0.709-0.918-0.709c-0.637,0-1.037,0.553-1.037,1.303c0,0.658,0.326,1.258,1.02,1.258
		c0.42,0,0.813-0.279,0.936-0.754c0.023-0.076,0.031-0.154,0.031-0.25V32.349z"/>
	<path fill="#F1F2F2" d="M69.486,32.173c-0.035-0.613-0.086-1.369-0.086-1.82h-0.01c-0.154,0.445-0.316,0.92-0.555,1.535
		l-0.861,2.221h-0.201l-0.807-2.174c-0.232-0.639-0.408-1.131-0.529-1.582h-0.012c-0.014,0.482-0.045,1.193-0.09,1.875l-0.131,1.881
		h-0.283l0.297-4.094h0.332l0.883,2.363c0.193,0.518,0.332,0.928,0.447,1.322h0.02c0.104-0.375,0.248-0.773,0.455-1.322l0.918-2.363
		h0.348l0.273,4.094h-0.287L69.486,32.173z"/>
	<path fill="#F1F2F2" d="M71.9,34.177c-0.754,0-1.338-0.59-1.338-1.504c0-0.994,0.656-1.547,1.379-1.547
		c0.811,0,1.354,0.607,1.354,1.502c0,1.078-0.748,1.549-1.389,1.549H71.9z M71.917,33.931c0.605,0,1.086-0.547,1.086-1.291
		c0-0.535-0.297-1.27-1.068-1.27c-0.746,0-1.082,0.664-1.082,1.287c0,0.727,0.461,1.273,1.059,1.273H71.917z"/>
	<path fill="#F1F2F2" d="M76.363,29.791v3.646c0,0.211,0.006,0.467,0.025,0.672h-0.266l-0.02-0.551h-0.014
		c-0.15,0.32-0.498,0.619-1.041,0.619c-0.721,0-1.258-0.602-1.258-1.473c-0.004-0.971,0.598-1.578,1.316-1.578
		c0.502,0,0.822,0.262,0.951,0.518h0.014v-1.854H76.363z M76.072,32.349c0-0.078-0.006-0.184-0.031-0.27
		c-0.096-0.387-0.441-0.709-0.918-0.709c-0.637,0-1.035,0.553-1.035,1.303c0,0.658,0.324,1.258,1.02,1.258
		c0.416,0,0.813-0.279,0.934-0.754c0.025-0.076,0.031-0.154,0.031-0.25V32.349z"/>
	<path fill="#F1F2F2" d="M77.474,30.609c-0.133,0-0.225-0.111-0.225-0.246s0.102-0.258,0.234-0.258c0.135,0,0.234,0.115,0.234,0.258
		c0,0.135-0.094,0.246-0.238,0.246H77.474z M77.341,34.109v-2.916h0.291v2.916H77.341z"/>
	<path fill="#F1F2F2" d="M78.63,34.109v-2.68h-0.422v-0.236h0.422v-0.189c0-0.744,0.35-1.271,1.117-1.271
		c0.248,0,0.531,0.088,0.668,0.195l-0.137,0.227c-0.125-0.098-0.346-0.18-0.588-0.18c-0.605,0-0.77,0.484-0.77,1.047v0.172h1.645
		v2.916h-0.291v-2.68h-1.354v2.68H78.63z"/>
	<path fill="#F1F2F2" d="M83.564,33.98c-0.133,0.063-0.434,0.193-0.859,0.193c-0.838,0-1.396-0.615-1.396-1.492
		c0-0.928,0.633-1.555,1.498-1.555c0.361,0,0.658,0.105,0.768,0.184l-0.105,0.236c-0.137-0.084-0.363-0.172-0.686-0.172
		c-0.783,0-1.184,0.598-1.184,1.283c0,0.764,0.479,1.268,1.156,1.268c0.342,0,0.568-0.1,0.725-0.176L83.564,33.98z"/>
	<path fill="#F1F2F2" d="M86.076,33.419c0,0.229,0.006,0.465,0.041,0.689h-0.264l-0.045-0.416h-0.014
		c-0.141,0.225-0.465,0.484-0.934,0.484c-0.59,0-0.855-0.414-0.855-0.801c0-0.68,0.588-1.082,1.779-1.072v-0.076
		c0-0.287-0.053-0.865-0.748-0.857c-0.254,0-0.521,0.064-0.736,0.215l-0.092-0.211c0.27-0.178,0.596-0.248,0.859-0.248
		c0.846,0,1.008,0.633,1.008,1.148V33.419z M85.785,32.55c-0.639-0.023-1.477,0.078-1.477,0.775c0,0.418,0.279,0.605,0.582,0.605
		c0.488,0,0.766-0.293,0.861-0.58c0.027-0.061,0.033-0.129,0.033-0.174V32.55z"/>
	<path fill="#F1F2F2" d="M87.419,30.548v0.645h0.832v0.236h-0.832v1.896c0,0.369,0.115,0.6,0.424,0.6c0.15,0,0.26-0.018,0.334-0.041
		l0.037,0.219c-0.1,0.037-0.229,0.07-0.406,0.07c-0.213,0-0.389-0.07-0.5-0.203c-0.133-0.152-0.18-0.402-0.18-0.699v-1.842h-0.494
		v-0.236h0.494V30.66L87.419,30.548z"/>
	<path fill="#F1F2F2" d="M89.029,30.609c-0.135,0-0.227-0.111-0.227-0.246s0.104-0.258,0.238-0.258c0.133,0,0.23,0.115,0.23,0.258
		c0,0.135-0.09,0.246-0.234,0.246H89.029z M88.894,34.109v-2.916h0.291v2.916H88.894z"/>
	<path fill="#F1F2F2" d="M91.257,34.177c-0.754,0-1.336-0.59-1.336-1.504c0-0.994,0.656-1.547,1.377-1.547
		c0.809,0,1.359,0.607,1.359,1.502c0,1.078-0.75,1.549-1.395,1.549H91.257z M91.277,33.931c0.605,0,1.086-0.547,1.086-1.291
		c0-0.535-0.299-1.27-1.07-1.27c-0.746,0-1.082,0.664-1.082,1.287c0,0.727,0.463,1.273,1.061,1.273H91.277z"/>
	<path fill="#F1F2F2" d="M93.396,31.892c0-0.268-0.008-0.467-0.023-0.699h0.273l0.016,0.521h0.012
		c0.158-0.326,0.529-0.588,1.004-0.588c0.279,0,1.021,0.141,1.021,1.232v1.75h-0.293v-1.727c0-0.535-0.207-1.012-0.809-1.012
		c-0.406,0-0.758,0.291-0.873,0.672c-0.018,0.066-0.039,0.164-0.039,0.258v1.809h-0.289V31.892z"/>
</g>
</svg>
