<?xml version="1.0" encoding="utf-8"?>
<!-- Generator: Adobe Illustrator 16.0.0, SVG Export Plug-In . SVG Version: 6.00 Build 0)  -->
<!DOCTYPE svg PUBLIC "-//W3C//DTD SVG 1.1//EN" "http://www.w3.org/Graphics/SVG/1.1/DTD/svg11.dtd">
<svg version="1.1" id="Layer_1" xmlns="http://www.w3.org/2000/svg" xmlns:xlink="http://www.w3.org/1999/xlink" x="0px" y="0px"
	 width="85.333px" height="34.249px" viewBox="0 0 85.333 34.249" enable-background="new 0 0 85.333 34.249" xml:space="preserve">
<g>
	<path fill="#FFFFFF" d="M33.73,9.51v15.507c0,4.891-4.029,8.862-8.992,8.862H8.998c-4.75,0-8.641-3.625-8.973-8.221
		C0.007,25.443,0,25.228,0,25.017V9.51c0-0.764,0.097-1.484,0.273-2.178c0.282-1.09,0.759-2.094,1.404-2.977
		c1.633-2.246,4.3-3.711,7.32-3.711h15.74c3.016,0,5.682,1.465,7.316,3.711c0.639,0.883,1.123,1.887,1.399,2.977
		C33.635,8.025,33.73,8.746,33.73,9.51z"/>
	<g>
		<path fill="#8DC63F" d="M38.479,4.498c0.705-0.11,1.625-0.211,2.8-0.211c1.441,0,2.498,0.331,3.168,0.922
			c0.619,0.533,0.988,1.344,0.988,2.331c0,1.011-0.301,1.802-0.869,2.38c-0.773,0.811-2.027,1.223-3.457,1.223
			c-0.434,0-0.84-0.01-1.174-0.1v4.464h-1.457V4.498z M39.936,9.871c0.322,0.085,0.723,0.114,1.209,0.114
			c1.762,0,2.834-0.843,2.834-2.378c0-1.473-1.059-2.182-2.664-2.182c-0.639,0-1.125,0.053-1.379,0.116V9.871z"/>
		<path fill="#8DC63F" d="M47.348,9.996c0-0.938-0.02-1.748-0.064-2.491h1.291l0.049,1.575h0.068
			c0.367-1.072,1.256-1.748,2.246-1.748c0.164,0,0.279,0.014,0.42,0.053v1.361c-0.154-0.024-0.305-0.045-0.506-0.045
			c-1.041,0-1.777,0.775-1.98,1.869c-0.027,0.197-0.064,0.429-0.064,0.668v4.269h-1.459V9.996z"/>
		<path fill="#8DC63F" d="M54.475,5.258c0.016,0.502-0.352,0.897-0.938,0.897c-0.521,0-0.887-0.396-0.887-0.897
			c0-0.521,0.379-0.902,0.918-0.902C54.124,4.355,54.475,4.737,54.475,5.258z M52.833,15.507V7.505h1.475v8.002H52.833z"/>
		<path fill="#8DC63F" d="M56.752,9.672c0-0.826-0.012-1.506-0.064-2.167h1.311l0.082,1.325h0.033
			c0.402-0.771,1.342-1.498,2.682-1.498c1.125,0,2.871,0.656,2.871,3.398v4.776h-1.479v-4.614c0-1.287-0.486-2.36-1.877-2.36
			c-0.969,0-1.729,0.677-1.982,1.489c-0.066,0.179-0.092,0.43-0.092,0.666v4.819h-1.484V9.672z"/>
		<path fill="#8DC63F" d="M67.84,5.209v2.296h2.111v1.103H67.84v4.318c0,0.993,0.281,1.555,1.107,1.555
			c0.381,0,0.672-0.055,0.85-0.097l0.07,1.091c-0.285,0.109-0.74,0.191-1.311,0.191c-0.686,0-1.238-0.212-1.592-0.607
			c-0.418-0.428-0.566-1.14-0.566-2.082V8.607h-1.258V7.505h1.258V5.594L67.84,5.209z"/>
		<path fill="#8DC63F" d="M82.178,13.529c0.84-0.977,1.332-2.342,1.619-4.113h-1.334c-0.23,1.41-0.574,2.482-1.086,3.265
			c-0.723-0.802-1.807-2.025-2.758-3.104V9.518c1.787-0.859,2.488-1.803,2.488-2.959c0-1.449-1.1-2.377-2.51-2.377
			c-1.865,0-2.855,1.387-2.855,2.746c0,0.074,0,0.152,0.02,0.224l7.424,8.349h0.855C83.356,14.785,82.79,14.17,82.178,13.529z
			 M77.077,6.801c0-0.863,0.494-1.615,1.426-1.615c0.916,0,1.314,0.752,1.314,1.42c0,0.962-0.744,1.541-1.885,2.2
			C77.438,8.196,77.077,7.582,77.077,6.801z"/>
		<path fill="#8DC63F" d="M75.762,7.151c0.037,0.716,0.381,1.462,0.914,2.104v0.05c-1.293,0.69-2.209,1.729-2.209,3.247
			c0,1.689,1.275,3.135,3.465,3.135c1.24,0,2.322-0.379,3.291-1.278c0.461,0.475,0.744,0.79,1.064,1.091h0.898L75.762,7.151z
			 M78.186,14.602c-1.357,0-2.311-0.977-2.311-2.257c0-1.157,0.857-1.874,1.445-2.265c1.258,1.424,2.518,2.777,3.199,3.506
			C79.967,14.17,79.149,14.602,78.186,14.602z"/>
	</g>
	<path fill="#8DC63F" d="M33.73,9.51v15.507c0,4.891-4.029,8.862-8.992,8.862H8.998c-4.75,0-8.641-3.625-8.973-8.221
		C0.007,25.443,0,25.228,0,25.017V9.51c0-0.764,0.097-1.484,0.273-2.178c0.282-1.09,0.759-2.094,1.404-2.977
		c1.633-2.246,4.3-3.711,7.32-3.711h15.74c3.016,0,5.682,1.465,7.316,3.711c0.639,0.883,1.123,1.887,1.399,2.977
		C33.635,8.025,33.73,8.746,33.73,9.51z"/>
	<g>
		<path fill="#FFFFFF" d="M27.207,27.029c0,1.225-1.01,2.225-2.254,2.225c-1.25,0-2.26-1-2.26-2.225c0-1.233,1.01-2.225,2.26-2.225
			C26.197,24.805,27.207,25.796,27.207,27.029L27.207,27.029z"/>
		<path fill="#FFFFFF" d="M17.211,25.256c-7.131,0-11.771-0.729-13.936-2.163c8.414-0.515,12.616-3.309,12.616-8.374
			c0-2.012-0.585-3.787-1.744-5.308c-1.172-1.528-2.746-2.288-4.737-2.288c-2.745,0-5.465,1.373-8.146,4.104
			C0.803,11.691,0.383,12.168,0,12.642v12.991c1.48,1.387,3.475,2.351,5.99,2.898c1.932,0.462,5.668,0.691,11.221,0.691
			c1.287,0,1.926-0.658,1.926-1.984C19.137,25.924,18.498,25.256,17.211,25.256L17.211,25.256z M4.156,13.98
			c1.753-1.926,3.502-2.887,5.254-2.887c1.642,0,2.453,1.203,2.453,3.625c0,1.846-1.428,3.08-4.291,3.713
			c-2.103,0.404-4.205,0.775-6.308,1.122C1.436,17.771,2.404,15.912,4.156,13.98L4.156,13.98z"/>
	</g>
	<g>
		<path fill="#8DC63F" d="M38.483,18.348c0.886-0.131,1.941-0.232,3.099-0.232c2.1,0,3.588,0.483,4.578,1.393
			c1.006,0.904,1.592,2.191,1.592,3.998c0,1.815-0.566,3.297-1.625,4.323c-1.061,1.045-2.801,1.604-4.996,1.604
			c-1.037,0-1.91-0.051-2.648-0.131V18.348z M39.94,28.196c0.369,0.065,0.908,0.077,1.475,0.077c3.121,0,4.814-1.715,4.814-4.725
			c0.016-2.624-1.494-4.292-4.582-4.292c-0.75,0-1.32,0.065-1.707,0.146V28.196z"/>
		<path fill="#8DC63F" d="M50.418,25.604c0.035,1.967,1.307,2.773,2.783,2.773c1.057,0,1.697-0.181,2.248-0.415l0.252,1.046
			c-0.52,0.225-1.406,0.494-2.701,0.494c-2.502,0-3.986-1.617-3.986-4.037c0-2.408,1.439-4.309,3.801-4.309
			c2.654,0,3.357,2.299,3.357,3.771c0,0.288-0.037,0.527-0.053,0.677H50.418z M54.747,24.557c0.014-0.925-0.389-2.362-2.045-2.362
			c-1.492,0-2.146,1.354-2.27,2.362H54.747z"/>
		<path fill="#8DC63F" d="M57.795,27.848c0.441,0.271,1.209,0.582,1.945,0.582c1.076,0,1.578-0.531,1.578-1.191
			c0-0.7-0.416-1.074-1.51-1.473c-1.455-0.51-2.146-1.307-2.146-2.26c0-1.291,1.055-2.35,2.801-2.35
			c0.822,0,1.545,0.229,1.996,0.496l-0.373,1.053c-0.316-0.191-0.908-0.457-1.656-0.457c-0.873,0-1.361,0.496-1.361,1.087
			c0,0.665,0.488,0.957,1.543,1.357c1.412,0.522,2.133,1.231,2.133,2.407c0,1.406-1.109,2.402-3.035,2.402
			c-0.887,0-1.711-0.219-2.279-0.545L57.795,27.848z"/>
		<path fill="#8DC63F" d="M66.28,19.093c0.018,0.493-0.352,0.894-0.938,0.894c-0.525,0-0.887-0.4-0.887-0.894
			c0-0.521,0.383-0.909,0.92-0.909C65.928,18.184,66.28,18.572,66.28,19.093z M64.639,29.334V21.34h1.477v7.994H64.639z"/>
		<path fill="#8DC63F" d="M75.551,21.34c-0.031,0.576-0.064,1.222-0.064,2.189v4.646c0,1.84-0.371,2.962-1.156,3.654
			c-0.785,0.719-1.932,0.96-2.953,0.96c-0.969,0-2.049-0.241-2.699-0.658l0.371-1.117c0.533,0.337,1.373,0.641,2.379,0.641
			c1.508,0,2.615-0.783,2.615-2.802v-0.891H74.01c-0.455,0.743-1.324,1.341-2.582,1.341c-2.014,0-3.453-1.686-3.453-3.897
			c0-2.712,1.793-4.249,3.654-4.249c1.402,0,2.18,0.725,2.529,1.391h0.037l0.068-1.207H75.551z M74.032,24.488
			c0-0.244-0.021-0.458-0.088-0.661c-0.27-0.841-0.986-1.532-2.063-1.532c-1.41,0-2.414,1.174-2.414,3.026
			c0,1.569,0.801,2.875,2.398,2.875c0.902,0,1.729-0.566,2.041-1.49c0.084-0.243,0.125-0.528,0.125-0.776V24.488z"/>
		<path fill="#8DC63F" d="M77.932,23.506c0-0.826-0.014-1.506-0.066-2.166h1.309l0.088,1.314h0.027
			c0.406-0.764,1.342-1.498,2.682-1.498c1.129,0,2.875,0.662,2.875,3.4v4.777h-1.479v-4.611c0-1.282-0.49-2.357-1.877-2.357
			c-0.973,0-1.727,0.678-1.979,1.484c-0.066,0.181-0.104,0.436-0.104,0.677v4.808h-1.477V23.506z"/>
	</g>
	<rect y="0.023" fill="#A7A9AC" width="33.73" height="4.332"/>
	<path opacity="0.4" d="M33.454,7.332H0.273c0.282-1.09,0.759-2.094,1.404-2.977h30.377C32.693,5.238,33.178,6.242,33.454,7.332z"/>
	<polygon opacity="0.4" fill="#F1F2F2" points="8.563,0 20.264,0 27.505,4.322 14.936,4.322 	"/>
	<polygon opacity="0.4" fill="#F1F2F2" points="33.73,0 33.73,4.383 31.326,4.383 28.139,1.998 26.68,0.911 25.465,0 	"/>
	<polygon opacity="0.4" fill="#F1F2F2" points="12.414,4.322 0,4.322 0,0 5.172,0 7.951,1.663 8.216,1.814 11.926,4.033 	"/>
</g>
</svg>
