<?xml version="1.0" encoding="utf-8"?>
<!-- Generator: Adobe Illustrator 16.0.0, SVG Export Plug-In . SVG Version: 6.00 Build 0)  -->
<!DOCTYPE svg PUBLIC "-//W3C//DTD SVG 1.1//EN" "http://www.w3.org/Graphics/SVG/1.1/DTD/svg11.dtd">
<svg version="1.1" id="Layer_1" xmlns="http://www.w3.org/2000/svg" xmlns:xlink="http://www.w3.org/1999/xlink" x="0px" y="0px"
	 width="78.833px" height="32.667px" viewBox="0 0 78.833 32.667" enable-background="new 0 0 78.833 32.667" xml:space="preserve">
<g>
	<g>
		<path fill="#ED1C24" d="M29.756,2.543c-0.051-0.057-0.102-0.098-0.15-0.146c-0.023-0.018-0.039-0.045-0.059-0.053
			c-0.008-0.008-0.014-0.016-0.016-0.02c-0.063-0.053-0.121-0.111-0.18-0.16l-0.006-0.006c-0.012-0.01-0.037-0.027-0.043-0.037
			c-0.021-0.012-0.025-0.023-0.041-0.035c-0.1-0.084-0.193-0.16-0.285-0.238c-0.051-0.035-0.102-0.074-0.15-0.109
			c-0.012-0.008-0.025-0.014-0.037-0.025c-0.049-0.035-0.098-0.076-0.145-0.115c0,0,0,0-0.004,0c-0.051-0.033-0.113-0.08-0.17-0.111
			c-0.047-0.033-0.096-0.068-0.148-0.096c-0.01-0.01-0.021-0.02-0.027-0.02l0,0c-0.068-0.045-0.135-0.088-0.201-0.133
			c-0.111-0.061-0.223-0.119-0.336-0.189c0,0,0,0-0.01,0V1.045c-0.09-0.047-0.191-0.1-0.283-0.148
			c-0.029-0.012-0.057-0.025-0.082-0.041c-0.072-0.037-0.148-0.063-0.223-0.1c-0.053-0.021-0.119-0.045-0.168-0.074
			c-0.086-0.035-0.174-0.068-0.262-0.102c-0.023-0.014-0.043-0.02-0.068-0.02c-0.084-0.043-0.18-0.07-0.262-0.1
			c-0.107-0.045-0.219-0.076-0.336-0.107c-0.004-0.002-0.012-0.006-0.023-0.014c-0.105-0.025-0.209-0.049-0.309-0.082
			c-0.1-0.025-0.199-0.041-0.297-0.068c-0.037-0.004-0.063-0.01-0.09-0.018c-0.102-0.02-0.199-0.035-0.297-0.051
			c-0.105-0.02-0.219-0.035-0.322-0.047c-0.02-0.008-0.035-0.008-0.053-0.008c-0.1-0.016-0.207-0.025-0.311-0.035
			c-0.031-0.002-0.063-0.002-0.098-0.002c-0.09-0.01-0.189-0.014-0.285-0.02c-0.117-0.008-0.232-0.008-0.359-0.008H8.434
			c-4.795,0-8.68,3.877-8.68,8.676v15.185c0,0.223,0.012,0.438,0.027,0.654c0.063,0.752,0.209,1.477,0.445,2.164
			c0.045,0.139,0.096,0.27,0.152,0.404c0.104,0.275,0.221,0.531,0.359,0.785c0.117,0.225,0.236,0.449,0.375,0.658
			c0.137,0.215,0.285,0.424,0.438,0.617c0.15,0.197,0.314,0.391,0.488,0.582C2.127,29.816,2.213,29.9,2.299,30
			c0.055,0.045,0.105,0.094,0.148,0.141c0,0,0.006,0.006,0.014,0.014c0.096,0.098,0.207,0.199,0.318,0.287
			c0.018,0.014,0.043,0.037,0.059,0.059c0.029,0.021,0.057,0.041,0.08,0.061c0.105,0.088,0.211,0.17,0.33,0.256
			c0.049,0.039,0.111,0.082,0.16,0.121c0.047,0.023,0.078,0.051,0.125,0.076c0.051,0.045,0.102,0.072,0.152,0.107
			c0.02,0.018,0.041,0.029,0.059,0.035c0.057,0.039,0.109,0.076,0.168,0.111c0,0,0,0,0.004,0c0.043,0.023,0.088,0.051,0.119,0.074
			c0.029,0.023,0.055,0.033,0.076,0.049c0.066,0.031,0.131,0.07,0.193,0.107c0.018,0.002,0.035,0.012,0.047,0.016
			c0.025,0.023,0.063,0.033,0.09,0.051c0.053,0.033,0.1,0.061,0.162,0.082c0.023,0.006,0.043,0.027,0.072,0.035
			c0.035,0.023,0.066,0.029,0.102,0.049c0.059,0.023,0.109,0.055,0.164,0.072c0.01,0.01,0.027,0.014,0.041,0.021
			c0.037,0.01,0.063,0.021,0.098,0.041c0.023,0.014,0.051,0.025,0.078,0.033c0.016,0.008,0.035,0.016,0.059,0.025
			c0.043,0.02,0.09,0.035,0.133,0.047c0.01,0.004,0.02,0.016,0.031,0.016c0.037,0.016,0.076,0.029,0.113,0.043
			c0.053,0.016,0.104,0.037,0.156,0.061c0.072,0.02,0.129,0.035,0.209,0.061c0.061,0.018,0.135,0.043,0.197,0.061
			c0.07,0.023,0.141,0.035,0.213,0.063c0.066,0.008,0.143,0.025,0.205,0.041c0.254,0.063,0.516,0.111,0.773,0.143
			c0.088,0.012,0.176,0.025,0.26,0.035c0.027,0.004,0.049,0.006,0.076,0.006c0.137,0.014,0.27,0.023,0.402,0.029
			c0.063,0.004,0.121,0.004,0.184,0.01c0.037,0.004,0.074,0.004,0.111,0c0.029,0.004,0.053,0.004,0.074,0.004
			c0.027,0,0.049,0,0.08,0h15.186c0.57,0,1.131-0.057,1.674-0.164c0.078-0.014,0.152-0.027,0.227-0.049
			c0.092-0.014,0.18-0.033,0.262-0.055h0.002l0,0c0.047-0.018,0.088-0.033,0.141-0.039c0.021-0.004,0.037-0.016,0.072-0.023
			c0.016-0.006,0.039-0.006,0.063-0.018c0.004,0,0.004,0,0.01-0.006c0.115-0.031,0.223-0.063,0.33-0.098
			c0.068-0.023,0.141-0.053,0.201-0.08c0.066-0.02,0.129-0.047,0.195-0.068c0.074-0.027,0.133-0.055,0.195-0.096
			c0.066-0.012,0.137-0.043,0.199-0.072l0,0v-0.002c0.061-0.023,0.125-0.061,0.191-0.09l0,0l0,0
			c0.063-0.029,0.129-0.055,0.186-0.088c0.061-0.035,0.127-0.066,0.18-0.096c0.01,0,0.01,0,0.01,0v-0.01
			c0.182-0.098,0.363-0.199,0.537-0.314l0,0l0,0c0.059-0.039,0.121-0.076,0.176-0.113c0.057-0.047,0.119-0.078,0.17-0.117
			c0.004,0,0.004,0,0.004,0v-0.006c0.111-0.082,0.225-0.156,0.332-0.246l0,0v-0.004c0.049-0.041,0.109-0.092,0.158-0.127
			c0.004,0,0.004,0,0.004,0l0,0c0.055-0.049,0.107-0.09,0.164-0.133l0,0v-0.006c0.104-0.084,0.201-0.182,0.303-0.275
			c0,0,0,0,0.004,0V30.14c0.045-0.047,0.096-0.096,0.146-0.141c0.004,0.002,0.004,0,0.004,0c0.045-0.049,0.092-0.1,0.141-0.148l0,0
			v-0.004c0.076-0.072,0.141-0.146,0.215-0.232c0.064-0.078,0.139-0.152,0.197-0.227l0,0v-0.002c0.049-0.064,0.09-0.111,0.135-0.16
			l0,0l0,0c0.145-0.193,0.281-0.381,0.412-0.58c0.17-0.25,0.332-0.516,0.471-0.793c0.617-1.197,0.967-2.553,0.967-3.99V8.678
			C32.297,6.285,31.323,4.111,29.756,2.543z M5.504,27.308c-2.396-0.521-4.305-1.455-5.723-2.787
			c-0.014-0.213-0.016-0.436-0.016-0.658v-9.66l0,0h3.031c-0.172,0.232-0.344,0.471-0.494,0.711
			c-0.791,1.23-1.252,2.434-1.363,3.609c2.031-0.342,4.063-0.711,6.088-1.102c2.768-0.629,4.148-1.838,4.148-3.641
			c0-0.402-0.027-0.771-0.072-1.107c-0.035-0.215-0.07-0.418-0.123-0.607c1.063-0.922,1.896-2.111,2.414-3.455
			c0.045,0.078,0.107,0.156,0.166,0.238c0.992,1.43,1.494,3.076,1.494,4.932c0,4.965-4.057,7.693-12.17,8.201
			c2.084,1.412,6.566,2.115,13.438,2.115c1.244,0,1.863,0.65,1.863,1.949c0,1.289-0.619,1.941-1.863,1.941
			C10.971,27.988,7.368,27.763,5.504,27.308z"/>
		<polygon opacity="0.8" fill="#FFF200" points="-0.234,14.203 -0.234,14.203 -0.234,14.203 		"/>
		<path opacity="0.9" fill="#FFF200" d="M32.301,8.678v15.185c0,1.438-0.348,2.801-0.971,3.99c-0.139,0.277-0.301,0.543-0.471,0.793
			c-0.131,0.199-0.268,0.387-0.412,0.58l0,0l0,0c-0.045,0.049-0.086,0.096-0.135,0.16v0.002l0,0c-0.043,0.051-0.088,0.1-0.127,0.148
			c-0.021,0.031-0.051,0.057-0.07,0.078c-0.074,0.086-0.139,0.16-0.215,0.232v0.004l0,0c-0.049,0.049-0.096,0.1-0.141,0.148
			c0,0,0,0.002-0.004,0c-0.051,0.045-0.102,0.094-0.146,0.141v0.006c-0.004,0-0.004,0-0.004,0c-0.102,0.094-0.199,0.191-0.303,0.275
			v0.006l0,0c-0.057,0.043-0.109,0.084-0.164,0.133l0,0c0,0,0,0-0.004,0c-0.049,0.035-0.109,0.086-0.158,0.127v0.004l0,0
			c-0.107,0.09-0.221,0.164-0.332,0.246v0.006c0,0,0,0-0.004,0c-0.051,0.039-0.113,0.07-0.17,0.117
			c-0.055,0.037-0.117,0.074-0.176,0.113l0,0l0,0c-0.174,0.115-0.355,0.217-0.537,0.314v0.01c0,0,0,0-0.01,0
			c-0.053,0.029-0.119,0.061-0.18,0.096c-0.057,0.033-0.123,0.059-0.186,0.088l0,0l0,0c-0.066,0.029-0.131,0.066-0.191,0.09v0.002
			l0,0c-0.063,0.029-0.133,0.061-0.199,0.072c-0.063,0.041-0.121,0.068-0.195,0.096c-0.066,0.021-0.129,0.049-0.195,0.068
			c-0.061,0.027-0.133,0.057-0.201,0.08c-0.107,0.035-0.215,0.066-0.33,0.098c-0.006,0.006-0.006,0.006-0.01,0.006
			c-0.047,0.012-0.098,0.025-0.135,0.041c-0.053,0.006-0.094,0.021-0.141,0.039h-0.002c-0.082,0.021-0.17,0.041-0.262,0.055
			c-0.074,0.021-0.148,0.035-0.227,0.049c-0.543,0.105-1.104,0.164-1.674,0.164H8.356c-0.021,0-0.045,0-0.074-0.004
			c-0.037,0.004-0.074,0.004-0.111,0c-0.063-0.006-0.121-0.006-0.184-0.01c-0.133-0.006-0.266-0.016-0.402-0.029
			c-0.027,0-0.049-0.002-0.076-0.006c-0.084-0.01-0.172-0.023-0.26-0.035c-0.258-0.031-0.52-0.08-0.773-0.143
			c-0.063-0.016-0.139-0.033-0.205-0.041c-0.072-0.027-0.143-0.039-0.213-0.063C5.995,32.193,5.92,32.167,5.86,32.15
			c-0.125-0.041-0.246-0.078-0.365-0.121c-0.037-0.014-0.076-0.027-0.113-0.043c-0.012,0-0.021-0.012-0.031-0.016
			c-0.09-0.029-0.178-0.068-0.27-0.105c-0.035-0.02-0.061-0.031-0.098-0.041c-0.014-0.008-0.031-0.012-0.041-0.021
			c-0.055-0.018-0.105-0.049-0.164-0.072c-0.035-0.02-0.066-0.025-0.102-0.049c-0.029-0.008-0.049-0.029-0.072-0.035
			c-0.063-0.021-0.109-0.049-0.162-0.082c-0.049-0.02-0.09-0.041-0.137-0.066c-0.063-0.037-0.127-0.076-0.193-0.107
			c-0.021-0.016-0.047-0.025-0.076-0.049c-0.031-0.023-0.076-0.051-0.119-0.074c-0.004,0-0.004,0-0.004,0
			c-0.059-0.035-0.111-0.072-0.168-0.111c-0.018-0.006-0.039-0.018-0.059-0.035c-0.051-0.035-0.102-0.063-0.152-0.107
			c-0.047-0.025-0.078-0.053-0.125-0.076c-0.049-0.039-0.111-0.082-0.16-0.121c-0.035-0.023-0.064-0.043-0.102-0.08
			c-0.053-0.039-0.117-0.088-0.18-0.141c-0.018-0.014-0.031-0.023-0.049-0.035c-0.023-0.02-0.051-0.039-0.08-0.061
			c-0.016-0.021-0.041-0.045-0.059-0.059c-0.055-0.045-0.102-0.088-0.15-0.139c-0.063-0.049-0.111-0.098-0.168-0.148
			c-0.008-0.008-0.014-0.008-0.014-0.008C2.405,30.093,2.354,30.044,2.299,30c-0.086-0.1-0.172-0.184-0.26-0.271
			c-0.174-0.191-0.334-0.385-0.488-0.582c-0.152-0.197-0.301-0.402-0.438-0.617c-0.131-0.209-0.258-0.434-0.375-0.658
			c-0.139-0.258-0.256-0.52-0.359-0.785c-0.057-0.135-0.107-0.266-0.152-0.404c-0.236-0.688-0.383-1.408-0.445-2.16
			c1.418,1.332,3.326,2.266,5.723,2.787c1.863,0.455,5.467,0.68,10.818,0.68c1.244,0,1.863-0.652,1.863-1.941
			c0-1.299-0.619-1.949-1.863-1.949c-6.871,0-11.354-0.703-13.438-2.115c8.113-0.508,12.17-3.236,12.17-8.201
			c0-1.855-0.502-3.502-1.494-4.932c-0.059-0.082-0.121-0.16-0.166-0.238c-0.518,1.344-1.352,2.533-2.414,3.455
			c0.053,0.189,0.088,0.393,0.123,0.607c0.045,0.336,0.072,0.705,0.072,1.107c0,1.803-1.381,3.012-4.148,3.641
			c-2.025,0.391-4.057,0.76-6.088,1.102c0.111-1.176,0.572-2.379,1.363-3.609c0.15-0.24,0.322-0.479,0.494-0.711h-3.031l0.027-0.045
			l7.715-7.713l0,0l6.451-6.443l0,0V0h9.662c0.127,0,0.242,0.002,0.359,0.01c0.096,0.006,0.195,0.01,0.285,0.02
			c0.035,0,0.066,0,0.098,0.002c0.104,0.01,0.211,0.02,0.311,0.035c0.018,0,0.033,0,0.053,0.008
			c0.104,0.012,0.217,0.027,0.322,0.047c0.098,0.016,0.195,0.031,0.297,0.051c0.027,0.008,0.053,0.014,0.09,0.018
			c0.098,0.027,0.197,0.043,0.297,0.068c0.1,0.033,0.203,0.057,0.309,0.082c0.012,0.008,0.02,0.012,0.023,0.014
			c0.117,0.031,0.229,0.063,0.336,0.107c0.082,0.029,0.178,0.057,0.262,0.1c0.025,0,0.045,0.006,0.068,0.02
			c0.088,0.033,0.176,0.066,0.262,0.102c0.049,0.029,0.115,0.053,0.168,0.074c0.074,0.037,0.15,0.063,0.223,0.1
			c0.025,0.016,0.053,0.029,0.082,0.041c0.092,0.049,0.193,0.102,0.283,0.148v0.004c0.01,0,0.01,0,0.01,0
			c0.113,0.07,0.225,0.129,0.336,0.189c0.066,0.045,0.133,0.088,0.201,0.133l0,0c0.006,0,0.018,0.01,0.027,0.02
			c0.053,0.027,0.102,0.063,0.148,0.096c0.057,0.031,0.119,0.078,0.17,0.111c0.004,0,0.004,0,0.004,0
			c0.047,0.039,0.096,0.08,0.145,0.115c0.012,0.012,0.025,0.018,0.037,0.025c0.049,0.035,0.1,0.074,0.15,0.109
			c0.092,0.078,0.186,0.154,0.285,0.238c0.016,0.012,0.02,0.023,0.041,0.035c0.006,0.01,0.031,0.027,0.043,0.037l0.006,0.006
			c0.029,0.025,0.064,0.049,0.092,0.09c0.008,0,0.008,0,0.014,0c0.021,0.023,0.047,0.047,0.074,0.07
			c0.002,0.004,0.008,0.012,0.016,0.02c0.02,0.008,0.035,0.035,0.059,0.053c0.049,0.049,0.1,0.09,0.15,0.146h0.004
			C31.331,4.111,32.301,6.285,32.301,8.678z"/>
		<path fill="#191819" d="M24.764,25.832c0,1.207-0.977,2.172-2.182,2.172s-2.174-0.965-2.174-2.172
			c0-1.205,0.969-2.178,2.174-2.178S24.764,24.626,24.764,25.832L24.764,25.832z"/>
		<path fill="#FFFFFF" d="M13.37,8.584c-0.006-0.008-0.006-0.008-0.01-0.012c-1.131-1.49-2.652-2.229-4.559-2.229
			c-0.27,0-0.545,0.012-0.814,0.039c-0.029,0-0.063,0.004-0.086,0.018C7.77,6.41,7.641,6.434,7.508,6.445l0,0
			c-2.209,0.361-4.4,1.674-6.568,3.914c-0.432,0.451-0.822,0.898-1.186,1.346c-0.008,0.02,0.012,12.794,0.027,12.812v0.004
			c-0.014-0.213-0.016-0.436-0.016-0.658v-9.66l0,0h3.031c0.137-0.182,0.271-0.348,0.41-0.525c0.164-0.213,0.34-0.412,0.523-0.617
			c1.688-1.885,3.381-2.83,5.07-2.83c1.033,0,1.73,0.512,2.086,1.527c0.037,0.098,0.068,0.193,0.094,0.309
			c1.063-0.922,1.896-2.111,2.414-3.455C13.385,8.604,13.377,8.596,13.37,8.584z"/>
		<path fill="#191819" d="M18.186,26.046c0,1.289-0.619,1.941-1.863,1.941c-5.352,0-8.955-0.225-10.818-0.68
			c-2.396-0.521-4.305-1.455-5.723-2.787c-0.014-0.213-0.016-0.436-0.016-0.658v-9.66l0,0h3.031
			c-0.172,0.232-0.344,0.471-0.494,0.711c-0.791,1.23-1.252,2.434-1.363,3.609c2.031-0.342,4.063-0.711,6.088-1.102
			c2.768-0.629,4.148-1.838,4.148-3.641c0-0.402-0.027-0.771-0.072-1.107c-0.035-0.215-0.07-0.418-0.123-0.607
			c1.063-0.922,1.896-2.111,2.414-3.455c0.045,0.078,0.107,0.156,0.166,0.238c0.992,1.43,1.494,3.076,1.494,4.932
			c0,4.965-4.057,7.693-12.17,8.201c2.084,1.412,6.566,2.115,13.438,2.115C17.567,24.097,18.186,24.748,18.186,26.046z"/>
		<path opacity="0.3" d="M13.959,0.711v5.52c0,0.912-0.141,1.793-0.398,2.619c-0.471,1.484-1.328,2.807-2.457,3.824
			c-1.537,1.389-3.582,2.24-5.82,2.24h-5.518v-0.711l0,0l0.027-0.045l6.648-6.303l1.545-1.473l5.779-5.486L13.959,0.711z"/>
		<path fill="#FEC20F" d="M13.959,0.002V5.52c0,1.092-0.199,2.137-0.564,3.092c-0.518,1.344-1.352,2.533-2.414,3.455
			c-1.523,1.324-3.521,2.137-5.697,2.137h-5.518l0.027-0.045l7.715-7.713l0,0L13.959,0.002L13.959,0.002z"/>
		<line fill="none" x1="-0.234" y1="14.203" x2="-0.949" y2="14.914"/>
		<polyline fill="none" points="-0.839,14.203 -0.275,14.203 -0.246,14.203 -0.234,14.203 -0.234,14.203 		"/>
	</g>
	<g opacity="0.9">
		<path fill="#FFF200" d="M38.602,28.396l-2.838-11.208h1.527l1.324,5.664c0.336,1.4,0.637,2.793,0.834,3.877h0.035
			c0.18-1.113,0.527-2.441,0.916-3.887l1.492-5.654h1.514l1.363,5.687c0.311,1.324,0.615,2.654,0.775,3.832h0.035
			c0.232-1.227,0.549-2.473,0.896-3.865l1.484-5.654h1.482l-3.182,11.208h-1.518l-1.406-5.836c-0.352-1.434-0.578-2.539-0.73-3.664
			h-0.039c-0.197,1.113-0.439,2.21-0.854,3.664l-1.604,5.836H38.602z"/>
		<path fill="#FFF200" d="M50.784,22.851c0-0.943-0.02-1.758-0.068-2.504h1.281l0.047,1.576h0.064
			c0.363-1.082,1.248-1.761,2.236-1.761c0.162,0,0.275,0.02,0.412,0.049v1.384c-0.148-0.047-0.301-0.053-0.5-0.053
			c-1.033,0-1.76,0.781-1.959,1.879c-0.041,0.197-0.068,0.432-0.068,0.684v4.291h-1.445V22.851z"/>
		<path fill="#FFF200" d="M60.67,28.396l-0.111-1.021h-0.055c-0.453,0.629-1.311,1.197-2.463,1.197
			c-1.623,0-2.457-1.145-2.457-2.309c0-1.945,1.725-3.01,4.834-2.998v-0.162c0-0.668-0.18-1.861-1.828-1.861
			c-0.746,0-1.527,0.234-2.088,0.59l-0.338-0.955c0.666-0.438,1.631-0.714,2.643-0.714c2.459,0,3.061,1.669,3.061,3.294v3.002
			c0,0.701,0.035,1.385,0.131,1.938H60.67z M60.452,24.287c-1.596-0.035-3.404,0.25-3.404,1.809c0,0.951,0.629,1.393,1.379,1.393
			c1.045,0,1.711-0.66,1.951-1.338c0.041-0.156,0.074-0.318,0.074-0.469V24.287z"/>
		<path fill="#FFF200" d="M64.225,22.974c0-1.031-0.035-1.867-0.068-2.627h1.313l0.066,1.381h0.037
			c0.598-0.986,1.545-1.566,2.855-1.566c1.945,0,3.414,1.644,3.414,4.089c0,2.893-1.77,4.32-3.66,4.32
			c-1.064,0-2.002-0.465-2.475-1.264h-0.035v4.369h-1.447V22.974z M65.672,25.115c0,0.211,0.035,0.414,0.064,0.602
			c0.268,1.012,1.146,1.711,2.197,1.711c1.543,0,2.439-1.268,2.439-3.109c0-1.615-0.848-2.994-2.396-2.994
			c-0.988,0-1.93,0.721-2.207,1.816c-0.051,0.178-0.098,0.404-0.098,0.598V25.115z"/>
		<path fill="#FFF200" d="M73.477,26.894c0.439,0.281,1.205,0.584,1.934,0.584c1.055,0,1.561-0.539,1.561-1.201
			c0-0.699-0.416-1.078-1.498-1.48c-1.445-0.51-2.125-1.309-2.125-2.273c0-1.297,1.045-2.361,2.777-2.361
			c0.814,0,1.525,0.236,1.975,0.501l-0.371,1.064c-0.305-0.201-0.893-0.473-1.637-0.473c-0.869,0-1.35,0.504-1.35,1.104
			c0,0.666,0.48,0.959,1.533,1.361c1.396,0.531,2.109,1.225,2.109,2.43c0,1.414-1.1,2.404-3.014,2.404
			c-0.881,0-1.695-0.217-2.26-0.551L73.477,26.894z"/>
	</g>
</g>
</svg>
