<?xml version="1.0" encoding="utf-8"?>
<!-- Generator: Adobe Illustrator 16.0.0, SVG Export Plug-In . SVG Version: 6.00 Build 0)  -->
<!DOCTYPE svg PUBLIC "-//W3C//DTD SVG 1.1//EN" "http://www.w3.org/Graphics/SVG/1.1/DTD/svg11.dtd">
<svg version="1.1" id="Layer_1" xmlns="http://www.w3.org/2000/svg" xmlns:xlink="http://www.w3.org/1999/xlink" x="0px" y="0px"
	 width="79.833px" height="34.249px" viewBox="0 0 79.833 34.249" enable-background="new 0 0 79.833 34.249" xml:space="preserve">
<g>
	<g>
		<g>
			<g>
				<g>
					<path fill="#EE2735" d="M33.395,24.385c0,4.846-3.932,8.787-8.791,8.787H9.223c-4.856,0-8.791-3.941-8.791-8.787V9.004
						c0-4.857,3.935-8.793,8.791-8.793h15.381c4.859,0,8.791,3.936,8.791,8.793V24.385z"/>
					<path fill="#FFFFFF" d="M25.764,26.365c0,1.229-0.989,2.223-2.205,2.223c-1.221,0-2.207-0.994-2.207-2.223
						c0-1.199,0.986-2.189,2.207-2.189C24.775,24.176,25.764,25.166,25.764,26.365L25.764,26.365z"/>
					<path fill="#FFFFFF" d="M17.22,24.621c-6.968,0-11.503-0.715-13.616-2.143c8.219-0.516,12.332-3.281,12.332-8.305
						c0-2.002-0.574-3.75-1.715-5.266C13.081,7.394,11.534,6.64,9.599,6.64c-2.688,0-5.338,1.354-7.964,4.071
						c-0.453,0.462-0.863,0.93-1.234,1.397v12.885c1.447,1.371,3.396,2.344,5.857,2.885c1.885,0.455,5.539,0.678,10.962,0.678
						c1.254,0,1.885-0.654,1.885-1.963C19.105,25.273,18.474,24.621,17.22,24.621L17.22,24.621z M4.461,13.445
						c1.711-1.912,3.425-2.87,5.138-2.87c1.601,0,2.396,1.202,2.396,3.599c0,1.828-1.401,3.052-4.198,3.684
						c-2.052,0.398-4.106,0.768-6.162,1.115C1.806,17.191,2.75,15.361,4.461,13.445L4.461,13.445z"/>
				</g>
			</g>
		</g>
		<g>
			<path fill="#EE2735" d="M37.905,27.703c0.766,0.473,1.885,0.865,3.059,0.865c1.742,0,2.762-0.926,2.762-2.256
				c0-1.236-0.707-1.957-2.49-2.627c-2.154-0.766-3.491-1.881-3.491-3.736c0-2.067,1.712-3.59,4.276-3.59
				c1.352,0,2.328,0.311,2.918,0.641l-0.468,1.396c-0.431-0.24-1.313-0.631-2.507-0.631c-1.806,0-2.491,1.082-2.491,1.983
				c0,1.234,0.8,1.838,2.624,2.547c2.236,0.863,3.373,1.941,3.373,3.883c0,2.035-1.514,3.803-4.627,3.803
				c-1.276,0-2.665-0.375-3.373-0.848L37.905,27.703z"/>
			<path fill="#EE2735" d="M49.663,17.619c0.018,0.599-0.412,1.074-1.098,1.074c-0.608,0-1.037-0.476-1.037-1.074
				c0-0.597,0.452-1.064,1.076-1.064C49.25,16.554,49.663,17.022,49.663,17.619z M47.742,29.777v-9.479h1.723v9.479H47.742z"/>
			<path fill="#EE2735" d="M60.5,20.299c-0.04,0.684-0.082,1.447-0.082,2.602v5.512c0,2.172-0.428,3.504-1.348,4.33
				c-0.924,0.863-2.258,1.133-3.453,1.133c-1.133,0-2.389-0.27-3.152-0.781l0.43-1.314c0.627,0.393,1.609,0.748,2.781,0.748
				c1.766,0,3.061-0.924,3.061-3.32V28.15h-0.043c-0.528,0.885-1.548,1.588-3.018,1.588c-2.352,0-4.033-1.992-4.033-4.619
				c0-3.223,2.094-5.037,4.271-5.037c1.646,0,2.549,0.861,2.958,1.646h0.037l0.083-1.43H60.5z M58.717,24.043
				c0-0.297-0.023-0.555-0.101-0.789c-0.315-0.998-1.157-1.822-2.409-1.822c-1.646,0-2.824,1.396-2.824,3.584
				c0,1.865,0.94,3.414,2.805,3.414c1.057,0,2.018-0.67,2.391-1.779c0.099-0.285,0.139-0.611,0.139-0.908V24.043z"/>
			<path fill="#EE2735" d="M63.162,22.865c0-0.984-0.019-1.783-0.077-2.566h1.533l0.094,1.564h0.043
				c0.469-0.904,1.564-1.781,3.132-1.781c1.315,0,3.351,0.781,3.351,4.035v5.66h-1.721v-5.465c0-1.533-0.57-2.801-2.197-2.801
				c-1.139,0-2.02,0.805-2.317,1.762c-0.073,0.215-0.114,0.506-0.114,0.797v5.707h-1.726V22.865z"/>
			<path fill="#EE2735" d="M73.804,28.02c0.511,0.33,1.411,0.684,2.274,0.684c1.253,0,1.84-0.631,1.84-1.41
				c0-0.822-0.49-1.281-1.762-1.746c-1.706-0.615-2.506-1.545-2.506-2.682c0-1.531,1.23-2.783,3.271-2.783
				c0.959,0,1.799,0.262,2.326,0.586l-0.428,1.252c-0.372-0.23-1.056-0.541-1.939-0.541c-1.02,0-1.588,0.584-1.588,1.289
				c0,0.785,0.568,1.141,1.807,1.609c1.643,0.627,2.486,1.447,2.486,2.861c0,1.664-1.295,2.842-3.544,2.842
				c-1.038,0-2.004-0.262-2.671-0.65L73.804,28.02z"/>
		</g>
	</g>
</g>
</svg>
